<?xml version="1.0" encoding="UTF-8" standalone="no"?>
<!-- Created with Inkscape (http://www.inkscape.org/) -->

<svg
   xmlns:dc="http://purl.org/dc/elements/1.1/"
   xmlns:cc="http://creativecommons.org/ns#"
   xmlns:rdf="http://www.w3.org/1999/02/22-rdf-syntax-ns#"
   xmlns:svg="http://www.w3.org/2000/svg"
   xmlns="http://www.w3.org/2000/svg"
   xmlns:sodipodi="http://sodipodi.sourceforge.net/DTD/sodipodi-0.dtd"
   xmlns:inkscape="http://www.inkscape.org/namespaces/inkscape"
   width="88.964676mm"
   height="153.61708mm"
   viewBox="0 0 88.964676 153.61708"
   version="1.1"
   id="svg943"
   inkscape:version="0.92.2 (5c3e80d, 2017-08-06)"
   sodipodi:docname="rocket.svg">
  <defs
     id="defs937" />
  <sodipodi:namedview
     id="base"
     pagecolor="#ffffff"
     bordercolor="#666666"
     borderopacity="1.0"
     inkscape:pageopacity="0.0"
     inkscape:pageshadow="2"
     inkscape:zoom="0.49497475"
     inkscape:cx="-406.76346"
     inkscape:cy="440.36459"
     inkscape:document-units="mm"
     inkscape:current-layer="g481"
     showgrid="false"
     inkscape:window-width="1920"
     inkscape:window-height="1017"
     inkscape:window-x="-8"
     inkscape:window-y="-8"
     inkscape:window-maximized="1"
     fit-margin-top="0"
     fit-margin-left="0"
     fit-margin-right="0"
     fit-margin-bottom="0" />
  <metadata
     id="metadata940">
    <rdf:RDF>
      <cc:Work
         rdf:about="">
        <dc:format>image/svg+xml</dc:format>
        <dc:type
           rdf:resource="http://purl.org/dc/dcmitype/StillImage" />
        <dc:title></dc:title>
      </cc:Work>
    </rdf:RDF>
  </metadata>
  <g
     inkscape:label="Layer 1"
     inkscape:groupmode="layer"
     id="layer1"
     transform="translate(-54.140117,-33.637325)">
    <g
       transform="matrix(0.34494484,0,0,0.2794104,-236.41005,60.4665)"
       id="g481">
      <g
         transform="matrix(0.76703085,0,0,0.94693445,437.31678,-257.85177)"
         id="g28">
        <path
           inkscape:connector-curvature="0"
           class="st3"
           d="m 751.7,583.6 c 0,5.8 -4.7,10.6 -10.5,10.6 l -95.2,0.2 c -5.8,0 -10.5,-4.7 -10.5,-10.5 v 0 c 0,-5.8 4.7,-10.6 10.5,-10.6 l 95.2,-0.2 c 5.8,0 10.5,4.7 10.5,10.5 z"
           style="fill:#ffffff"
           id="path26" />
      </g>
      <g
         transform="matrix(0.76703085,0,0,0.94693445,437.31678,-257.85177)"
         id="g32">
        <path
           inkscape:connector-curvature="0"
           class="st4"
           d="m 694.8,170.9 c 0,0 -132.5,78.6 -129.3,229.2 3.3,150.6 53.5,177.7 53.5,177.7 l 76.5,-0.1 76.5,-0.1 c 0,0 50.2,-27.2 52.9,-177.9 C 827.6,249 694.8,170.9 694.8,170.9 Z"
           style="fill:#e5e5e5"
           id="path30" />
      </g>
      <g
         transform="matrix(0.76703085,0,0,0.94693445,437.31678,-257.85177)"
         id="g36">
        <path
           inkscape:connector-curvature="0"
           class="st3"
           d="m 691,173.4 c -21.6,14.2 -128.4,91.4 -125.5,226.8 3.3,150.6 53.5,177.7 53.5,177.7 l 71.9,-0.1 V 173.4 Z"
           style="fill:#ffffff"
           id="path34" />
      </g>
      <g
         transform="matrix(0.76703085,0,0,0.94693445,437.31678,-257.85177)"
         id="g40"
         style="fill:#800000">
        <path
           inkscape:connector-curvature="0"
           class="st5"
           d="m 785.4,261.9 c -38.3,-60.2 -90.6,-91 -90.6,-91 0,0 -52.2,31 -90.3,91.3 -3,4.7 -5.8,9.6 -8.6,14.6 38.8,14.8 111.1,31.6 198.6,0.4 -2.9,-5.3 -6,-10.4 -9.1,-15.3 z"
           style="fill:#f9687f;fill-opacity:1"
           id="path38" />
      </g>
      <g
         transform="matrix(0.76703085,0,0,0.94693445,437.31678,-257.85177)"
         id="g44">
        <path
           inkscape:connector-curvature="0"
           class="st6"
           d="m 692,172.7 c -11.3,7.3 -54.7,37.5 -87.5,89.5 -3,4.7 -5.8,9.6 -8.6,14.6 22.2,8.5 55.4,17.6 96.1,18 z"
           style="fill:#f9687f;fill-opacity:1"
           id="path42" />
      </g>
      <g
         transform="matrix(0.76703085,0,0,0.94693445,437.31678,-257.85177)"
         id="g48">
        <path
           inkscape:connector-curvature="0"
           class="st6"
           d="M 584.4,480.8 532,545.4 c 0,0 -9,7.3 0,27.3 9.1,20 52.7,115.3 52.7,115.3 0,0 3.3,1.8 5.1,-2.7 0,0 -12.2,-98.4 40.8,-108.5"
           style="fill:#f9687f;fill-opacity:1"
           id="path46" />
      </g>
      <g
         transform="matrix(0.76703085,0,0,0.94693445,437.31678,-257.85177)"
         id="g52">
        <path
           inkscape:connector-curvature="0"
           class="st5"
           d="m 807.6,480.4 52.6,64.4 c 0,0 9.1,7.3 0,27.3 -9,20 -52.2,115.5 -52.2,115.5 0,0 -3.3,1.8 -5.1,-2.7 0,0 11.9,-98.5 -41.2,-108.4"
           style="fill:#f9687f;fill-opacity:1"
           id="path50" />
      </g>
      <g
         transform="matrix(0.76703085,0,0,0.94693445,437.31678,-257.85177)"
         id="g58">
        <g
           id="g56">
          <path
             inkscape:connector-curvature="0"
             class="st4"
             d="M 568.3,447 C 579.6,556.6 619,577.8 619,577.8 l 76.5,-0.1 76.5,-0.1 c 0,0 39.3,-21.3 50.2,-130.7 -115.9,66.8 -215.9,22.5 -253.9,0.1 z"
             style="fill:#e5e5e5"
             id="path54" />
        </g>
      </g>
      <g
         transform="matrix(0.76703085,0,0,0.94693445,437.31678,-257.85177)"
         id="g64">
        <g
           id="g62">
          <path
             inkscape:connector-curvature="0"
             class="st3"
             d="M 695,482.2 C 636.9,482 591.3,460.5 568.3,447 579.6,556.6 619,577.8 619,577.8 l 75.9,-0.1 v -95.5 z"
             style="fill:#ffffff"
             id="path60" />
        </g>
      </g>
      <g
         transform="matrix(0.76703085,0,0,0.94693445,437.31678,-257.85177)"
         id="g68">
        <path
           inkscape:connector-curvature="0"
           class="st7"
           d="m 753.6,368.2 c 0.1,33.1 -26.6,59.9 -59.5,60 -32.9,0.1 -59.6,-26.7 -59.7,-59.7 -0.1,-33.1 26.6,-59.9 59.5,-60 32.9,-0.1 59.7,26.7 59.7,59.7 z"
           style="fill:#5c5c5b"
           id="path66" />
      </g>
      <g
         transform="matrix(0.76703085,0,0,0.94693445,437.31678,-257.85177)"
         id="g72">
        <path
           inkscape:connector-curvature="0"
           class="st6"
           d="m 695.1,751.5 c 0,0 94,-137.2 -0.2,-137 -94.2,0.1 0.2,137 0.2,137 z"
           style="fill:#f18906"
           id="path70" />
      </g>
      <g
         transform="matrix(0.76703085,0,0,0.94693445,437.31678,-257.85177)"
         id="g76"
         style="fill:#2b0000">
        <path
           inkscape:connector-curvature="0"
           class="st8"
           d="m 741,362.3 c 0.1,29 -23.3,52.5 -52.1,52.5 -28.8,0.1 -52.2,-23.4 -52.3,-52.3 0,-29 23.3,-52.5 52.1,-52.5 28.8,-0.1 52.2,23.4 52.3,52.3 z"
           style="fill:#2b0000"
           id="path74" />
      </g>
      <g
         transform="matrix(0.76703085,0,0,0.94693445,437.31678,-257.85177)"
         id="g80">
        <path
           inkscape:connector-curvature="0"
           class="st3"
           d="m 694,432.2 c -35,0 -63.5,-28.6 -63.6,-63.7 -0.1,-35.2 28.4,-63.9 63.5,-64 h 0.1 c 35,0 63.5,28.6 63.6,63.7 0.1,35.2 -28.4,63.9 -63.5,64 z m 0.1,-119.7 c -30.7,0.1 -55.6,25.2 -55.6,56 0.1,30.7 25,55.8 55.6,55.8 h 0.1 c 30.6,-0.1 55.5,-25.2 55.5,-56 -0.1,-30.8 -25.1,-55.8 -55.6,-55.8 z"
           style="fill:#ffffff"
           id="path78" />
      </g>
      <g
         transform="matrix(0.76703085,0,0,0.94693445,437.31678,-257.85177)"
         id="g84">
        <path
           inkscape:connector-curvature="0"
           d="m 732.69997,483.39999 a 38.599998,38.799999 0 0 1 -38.59999,38.8 38.599998,38.799999 0 0 1 -38.6,-38.8 38.599998,38.799999 0 0 1 38.6,-38.8 38.599998,38.799999 0 0 1 38.59999,38.8 z"
           transform="matrix(1,-0.00177547,0.00177547,1,-0.8571,1.2331)"
           class="st7"
           style="fill:#5c5c5b"
           id="path82" />
      </g>
      <g
         transform="matrix(0.76703085,0,0,0.94693445,437.31678,-257.85177)"
         id="g88">
        <path
           inkscape:connector-curvature="0"
           class="st8"
           d="m 724.5,479.5 c 0,18.8 -15.1,34 -33.8,34.1 -18.7,0 -33.9,-15.2 -33.9,-33.9 0,-18.8 15.1,-34 33.8,-34.1 18.7,-0.1 33.9,15.1 33.9,33.9 z"
           style="fill:#1c1935"
           id="path86" />
      </g>
      <g
         transform="matrix(0.76703085,0,0,0.94693445,437.31678,-257.85177)"
         id="g92">
        <path
           inkscape:connector-curvature="0"
           class="st3"
           d="m 694.1,526.2 c -23.5,0 -42.6,-19.2 -42.6,-42.7 0,-23.6 19,-42.9 42.6,-42.9 23.5,0 42.7,19.2 42.7,42.8 0,23.5 -19.1,42.8 -42.7,42.8 z m 0,-77.6 c -19.2,0 -34.7,15.7 -34.6,34.9 0,19.2 15.6,34.8 34.6,34.8 v 4 l 0.1,-4 c 19.1,0 34.6,-15.7 34.6,-34.9 -0.1,-19.2 -15.6,-34.8 -34.7,-34.8 z"
           style="fill:#ffffff"
           id="path90" />
      </g>
      <g
         transform="matrix(0.76703085,0,0,0.94693445,437.31678,-257.85177)"
         id="g96">
        <path
           inkscape:connector-curvature="0"
           class="st9"
           d="m 695.1,709.2 c 0,0 59.2,-94.8 -0.2,-94.7 -59.4,0.1 0.2,94.7 0.2,94.7 z"
           style="fill:#fbbf49"
           id="path94" />
      </g>
      <g
         transform="matrix(0.76703085,0,0,0.94693445,437.31678,-257.85177)"
         id="g136">
        <path
           inkscape:connector-curvature="0"
           d="m 699.5,343.39999 a 14.5,14.5 0 0 1 -14.5,14.5 14.5,14.5 0 0 1 -14.5,-14.5 14.5,14.5 0 0 1 14.5,-14.5 14.5,14.5 0 0 1 14.5,14.5 z"
           class="st3"
           style="fill:#ffffff"
           id="path134" />
      </g>
      <g
         transform="matrix(0.76703085,0,0,0.94693445,437.31678,-257.85177)"
         id="g140">
        <path
           inkscape:connector-curvature="0"
           d="m 669.90001,356.60001 a 7.2,7.3 0 0 1 -7.2,7.3 7.2,7.3 0 0 1 -7.2,-7.3 7.2,7.3 0 0 1 7.2,-7.3 7.2,7.3 0 0 1 7.2,7.3 z"
           class="st3"
           style="fill:#ffffff"
           id="path138" />
      </g>
      <g
         transform="matrix(0.76703085,0,0,0.94693445,437.31678,-257.85177)"
         id="g144">
        <path
           inkscape:connector-curvature="0"
           d="m 699.4,469.39999 a 8.9,9 0 0 1 -8.9,9 8.9,9 0 0 1 -8.9,-9 8.9,9 0 0 1 8.9,-9 8.9,9 0 0 1 8.9,9 z"
           class="st3"
           style="fill:#ffffff"
           id="path142" />
      </g>
      <g
         transform="matrix(0.76703085,0,0,0.94693445,437.31678,-257.85177)"
         id="g148">
        <path
           inkscape:connector-curvature="0"
           d="m 681.29999,477.60001 a 4.5,4.5 0 0 1 -4.5,4.5 4.5,4.5 0 0 1 -4.5,-4.5 4.5,4.5 0 0 1 4.5,-4.5 4.5,4.5 0 0 1 4.5,4.5 z"
           class="st3"
           style="fill:#ffffff"
           id="path146" />
      </g>
      <g
         transform="matrix(0.76703085,0,0,0.94693445,437.31678,-257.85177)"
         id="g152">
        <path
           inkscape:connector-curvature="0"
           class="st5"
           d="m 693,665.9 c 0,0 -2.4,-8.2 -5.2,-20.4 -0.7,-3.1 -1.5,-6.4 -2.2,-9.9 -0.8,-3.5 -1.5,-7.2 -2.3,-11 -0.7,-3.8 -1.5,-7.8 -2.2,-11.8 -0.7,-4 -1.3,-8.1 -2,-12.2 -0.6,-4.1 -1.7,-8.2 -2.8,-12.2 -1.1,-4 -2,-8 -2.1,-11.8 -0.1,-3.8 0.5,-7.5 1.4,-11 0.9,-3.5 2,-6.8 3.4,-9.9 1.3,-3.1 2.8,-5.9 4.4,-8.4 1.5,-2.5 3.1,-4.7 4.5,-6.4 0.7,-0.9 1.4,-1.7 2,-2.4 0.6,-0.7 1.1,-1.3 1.6,-1.8 0.9,-1 1.5,-1.5 1.5,-1.5 h 4 c 0,0 0.6,0.5 1.5,1.5 0.5,0.5 1,1.1 1.6,1.8 0.6,0.7 1.4,1.5 2,2.4 1.4,1.8 3,4 4.5,6.4 1.5,2.5 3,5.3 4.4,8.4 1.3,3.1 2.5,6.4 3.4,9.9 0.9,3.5 1.5,7.2 1.4,11 -0.1,3.8 -1,7.8 -2.1,11.8 -1.1,4 -2.1,8.1 -2.8,12.2 -0.7,4.1 -1.2,8.2 -2,12.2 -0.7,4 -1.5,8 -2.2,11.8 -0.8,3.8 -1.6,7.5 -2.3,11 -0.8,3.5 -1.5,6.8 -2.2,9.9 -2.9,12.2 -5.2,20.4 -5.2,20.4 z"
           style="fill:#f9687f;fill-opacity:1"
           id="path150" />
      </g>
      <g
         transform="matrix(0.76703085,0,0,0.94693445,437.31678,-257.85177)"
         id="g156">
        <path
           inkscape:connector-curvature="0"
           class="st6"
           d="m 694,535.3 h -1 c 0,0 -0.6,0.5 -1.5,1.5 -0.5,0.5 -1,1.1 -1.6,1.8 -0.6,0.7 -1.4,1.5 -2,2.4 -1.4,1.8 -3,4 -4.5,6.4 -1.5,2.5 -3,5.3 -4.4,8.4 -1.3,3.1 -2.5,6.4 -3.4,9.9 -0.9,3.5 -1.5,7.2 -1.4,11 0.1,3.8 1,7.8 2.1,11.8 1.1,4 2.1,8.1 2.8,12.2 0.7,4.1 1.2,8.2 2,12.2 0.7,4 1.5,8 2.2,11.8 0.8,3.8 1.6,7.5 2.3,11 0.8,3.5 1.5,6.8 2.2,9.9 2.9,12.2 5.2,20.4 5.2,20.4 h 1 z"
           style="fill:#f9687f;fill-opacity:1"
           id="path154" />
      </g>
    </g>
  </g>
</svg>
