<?xml version="1.0" encoding="UTF-8" standalone="no"?>
<!-- Created with Inkscape (http://www.inkscape.org/) -->

<svg
   xmlns:dc="http://purl.org/dc/elements/1.1/"
   xmlns:cc="http://creativecommons.org/ns#"
   xmlns:rdf="http://www.w3.org/1999/02/22-rdf-syntax-ns#"
   xmlns:svg="http://www.w3.org/2000/svg"
   xmlns="http://www.w3.org/2000/svg"
   xmlns:sodipodi="http://sodipodi.sourceforge.net/DTD/sodipodi-0.dtd"
   xmlns:inkscape="http://www.inkscape.org/namespaces/inkscape"
   width="130.87561mm"
   height="89.395149mm"
   viewBox="0 0 130.87561 89.395151"
   version="1.1"
   id="svg880"
   inkscape:version="0.92.2 (5c3e80d, 2017-08-06)"
   sodipodi:docname="chess.svg">
  <defs
     id="defs874" />
  <sodipodi:namedview
     id="base"
     pagecolor="#ffffff"
     bordercolor="#666666"
     borderopacity="1.0"
     inkscape:pageopacity="0.0"
     inkscape:pageshadow="2"
     inkscape:zoom="0.7"
     inkscape:cx="-249.8264"
     inkscape:cy="336.91584"
     inkscape:document-units="mm"
     inkscape:current-layer="layer1"
     showgrid="false"
     fit-margin-top="0"
     fit-margin-left="0"
     fit-margin-right="0"
     fit-margin-bottom="0"
     inkscape:window-width="1920"
     inkscape:window-height="1017"
     inkscape:window-x="-8"
     inkscape:window-y="-8"
     inkscape:window-maximized="1" />
  <metadata
     id="metadata877">
    <rdf:RDF>
      <cc:Work
         rdf:about="">
        <dc:format>image/svg+xml</dc:format>
        <dc:type
           rdf:resource="http://purl.org/dc/dcmitype/StillImage" />
        <dc:title></dc:title>
      </cc:Work>
    </rdf:RDF>
  </metadata>
  <g
     inkscape:label="Layer 1"
     inkscape:groupmode="layer"
     id="layer1"
     transform="translate(-86.868358,-180.67405)">
    <path
       inkscape:connector-curvature="0"
       class="st3"
       d="m 183.86732,251.54366 h 17.93802 l 1.02375,-8.28706 c -4.20631,-3.43775 -8.65743,-9.92624 -8.50164,-16.05046 0.0223,-1.07003 0.93474,-0.9562 0.95699,-0.18213 0.0445,1.47983 0.89023,4.07522 3.98376,3.21009 1.69142,-0.4781 3.4051,-0.6147 4.67368,-0.11383 1.22406,0.47809 1.46887,1.07003 2.58164,1.63919 0,0 1.13504,-1.09279 1.9585,-2.73199 0.75669,-1.5026 1.22406,-2.5954 -0.82346,-4.00693 -1.80271,-1.25217 -4.27307,-4.23459 -5.11879,-6.35189 -0.64541,-1.61643 -1.6024,-2.5271 -2.35909,-2.9369 0.26707,-0.88789 1.09052,-1.70749 -0.66767,-3.25562 -0.55639,0.43257 -1.1573,0.91066 -1.69143,1.54813 -2.91548,-0.9562 -7.56691,-0.31873 -10.83848,2.16283 -9.08028,7.01212 -7.03277,29.96088 -3.11578,35.35657 z"
       style="fill:#4d4d4d;stroke-width:0.22509667"
       id="path27" />
    <path
       inkscape:connector-curvature="0"
       class="st3"
       d="m 204.40924,269.9391 c 0,0 -0.0668,-1.11557 -0.24481,-1.6392 -0.2003,-0.52363 -0.84571,-1.11557 -0.84571,-1.11557 h -21.38765 c 0,0 -0.64541,0.52363 -0.86796,1.0928 -0.22255,0.56917 -0.22255,1.68473 -0.22255,1.68473 h 23.56868 z"
       style="fill:#4d4d4d;stroke-width:0.22509667"
       id="path29" />
    <path
       inkscape:connector-curvature="0"
       class="st3"
       d="m 203.16293,266.729 c 1.04602,-1.45706 1.64691,-3.21009 1.51338,-5.41846 -0.13353,-2.27666 -1.26857,-4.73545 -2.44812,-6.64785 h -18.96178 c -1.02375,1.73026 -2.53714,3.98416 -2.69292,6.21529 -0.15579,2.23113 0.46736,4.39396 1.51337,5.85102 z"
       style="fill:#4d4d4d;stroke-width:0.22509667"
       id="path31" />
    <path
       inkscape:connector-curvature="0"
       class="st3"
       d="m 203.05165,253.04626 c -0.2003,-0.86513 -0.93474,-1.04727 -1.17955,-1.04727 -0.20029,0 -5.89774,0 -8.85773,0 0,0 -0.68992,0 -1.73594,0 -2.95999,0 -7.32209,0 -7.52239,0 -0.26707,0 -0.97925,0.18214 -1.17955,1.04727 -0.17804,0.70576 0.48962,1.25216 0.75669,1.25216 0.15579,0 5.85323,0 8.81322,0 2.96,0 9.99277,0 10.14856,0 0.26707,0 0.93474,-0.5464 0.75669,-1.25216 z"
       style="fill:#4d4d4d;stroke-width:0.22509667"
       id="path33" />
    <path
       inkscape:connector-curvature="0"
       class="st5"
       d="m 141.24774,269.96186 c 0,0 0.0668,-1.09279 0.26707,-1.61642 0.2003,-0.52364 0.86797,-1.11557 0.86797,-1.11557 h 23.52417 c 0,0 0.66767,0.52363 0.91248,1.07003 0.22256,0.5464 0.22256,1.66196 0.22256,1.66196 z"
       style="fill:#4d4d4d;stroke-width:0.22509667"
       id="path47" />
    <path
       inkscape:connector-curvature="0"
       class="st5"
       d="m 142.53597,266.84284 c -1.06827,-1.4343 -1.69142,-3.16456 -1.55789,-5.35016 0.13353,-2.23113 1.31308,-4.68992 2.53714,-6.55679 h 21.0093 c 1.06827,1.7075 2.62616,3.93863 2.78195,6.12422 0.15579,2.20837 -0.48963,4.32567 -1.5579,5.78273 z"
       style="fill:#4d4d4d;stroke-width:0.22509667"
       id="path49" />
    <path
       inkscape:connector-curvature="0"
       class="st5"
       d="m 142.85013,253.29669 c 0.2003,-0.86512 0.95699,-1.04726 1.22406,-1.04726 0.2003,0 6.1203,0 9.16931,0 0,0 0.71218,0 1.8027,0 3.04902,0 8.96901,0 9.16931,0 0.26707,0 1.02376,0.18214 1.22406,1.04726 0.17805,0.683 -0.51188,1.2294 -0.77894,1.25217 -0.15579,0 -7.43337,0 -10.50465,0 -3.04902,0 -10.3266,0 -10.50464,0 -0.28933,0 -0.97925,-0.56917 -0.80121,-1.25217 z"
       style="fill:#4d4d4d;stroke-width:0.22509667"
       id="path51" />
    <path
       inkscape:connector-curvature="0"
       class="st5"
       d="m 144.27451,251.93069 c 2.62616,-6.12422 5.11878,-9.49368 5.83096,-21.05913 h 8.45714 c 0.71217,11.56545 2.82646,14.93491 5.45262,21.05913 z"
       style="fill:#4d4d4d;stroke-width:0.22509667"
       id="path53" />
    <path
       inkscape:connector-curvature="0"
       class="st6"
       d="m 150.60622,195.87926 c 1.00151,1.04726 2.1588,1.5026 2.62617,1.02449 0.44511,-0.47809 0.0223,-1.70749 -0.97925,-2.73199 -0.13353,-0.1366 -0.26707,-0.2732 -0.42286,-0.38703 0.66767,-0.4098 1.44662,-0.63747 2.29233,-0.63747 0.82346,0 1.60241,0.22767 2.29233,0.63747 -0.15579,0.1366 -0.31158,0.2732 -0.46737,0.43256 -1.0015,1.04727 -1.42436,2.27666 -0.97924,2.75477 0.46736,0.47809 1.62466,0.0228 2.62616,-1.00174 0.15579,-0.18213 0.31158,-0.34149 0.44511,-0.52363 0.42286,0.72854 0.66767,1.5709 0.66767,2.48157 0,0.86512 -0.22256,1.68472 -0.6009,2.39049 -0.13354,-0.15937 -0.26707,-0.31873 -0.40061,-0.4781 -1.00149,-1.04727 -2.15879,-1.47983 -2.62615,-1.00173 -0.44512,0.4781 -0.0223,1.7075 0.97924,2.75476 0.15579,0.15937 0.31158,0.29597 0.46737,0.43257 -0.68993,0.43257 -1.49113,0.683 -2.35909,0.683 -0.84572,0 -1.64692,-0.25043 -2.33685,-0.66023 0.17805,-0.1366 0.33384,-0.29597 0.48963,-0.45534 1.0015,-1.04726 1.42436,-2.2539 0.97924,-2.73199 -0.46736,-0.47811 -1.62466,-0.0228 -2.62616,1.00173 -0.15579,0.15936 -0.31158,0.3415 -0.44511,0.52363 -0.4006,-0.70576 -0.64541,-1.54813 -0.64541,-2.43603 0,-0.91067 0.24481,-1.75303 0.66767,-2.45879 0.089,0.0911 0.22255,0.25043 0.35608,0.38703 z"
       style="clip-rule:evenodd;fill:#4d4d4d;fill-rule:evenodd;stroke-width:0.22509667"
       id="path55" />
    <path
       inkscape:connector-curvature="0"
       class="st5"
       d="m 143.30639,209.40264 c 0,-2.23114 1.73593,-4.0297 3.85022,-4.0297 0.62315,0 1.58014,0 2.18105,0 0,0 0,-0.72853 0,-0.97897 0,-0.63746 0.48962,-1.16109 1.11277,-1.16109 0.97925,0 6.20932,0 7.38887,0 0.6009,0 1.11278,0.52363 1.11278,1.16109 0,0.2732 0,0.97897 0,0.97897 0.62316,0 1.58015,0 2.18105,0 2.13653,0 3.85021,1.79856 3.85021,4.0297 0,0.97896 -0.42285,1.95792 -0.89022,2.73199 -0.64541,1.07003 -4.78495,7.39916 -4.78495,7.39916 l 0.37834,6.87551 c 0.66767,0 1.11279,0 1.15729,0 0.17805,0 1.49113,0.5464 1.62466,2.049 0.11128,1.20663 -1.15729,1.95793 -1.33533,1.9807 -0.11128,0 -4.7627,0 -6.72119,0 -1.9585,0 -7.18857,0 -7.29985,0 -0.17804,-0.0228 -1.37984,-0.683 -1.26856,-1.88963 0.13353,-1.5026 1.37984,-2.16283 1.55789,-2.16283 0.0445,0 0.51187,0 1.2018,0 l 0.33384,-7.05766 c 0,0 -4.09504,-6.16975 -4.74045,-7.23978 -0.46737,-0.72854 -0.89022,-1.7075 -0.89022,-2.68646 z"
       style="fill:#4d4d4d;stroke-width:0.22509667"
       id="path57" />
    <path
       inkscape:connector-curvature="0"
       class="st4"
       d="m 121.6458,224.94575 c 0,0 2.1143,-1.9124 3.29385,-4.39396 1.17955,-2.4588 1.46887,-5.98763 1.46887,-5.98763 h -6.4319 l 0.46738,4.84929 h -4.51792 l 0.46737,-4.84929 h -5.76424 l 0.46736,4.84929 h -4.51792 l 0.46739,-4.84929 h -6.45417 c 0,0 0.13353,2.9369 1.46887,5.98763 1.33535,3.05072 3.29386,4.39396 3.29386,4.39396 z"
       style="fill:#4d4d4d;stroke-width:0.22509667"
       id="path35" />
    <path
       inkscape:connector-curvature="0"
       d="m 104.01925,248.4409 1.82498,-19.51099 h 15.40097 l 1.82498,19.51099 z"
       class="st4"
       style="fill:#4d4d4d;stroke-width:0.22509667"
       id="path37" />
    <path
       inkscape:connector-curvature="0"
       class="st4"
       d="m 127.76611,270.0692 c 0,0 -0.22256,-1.0928 -0.42285,-1.70749 -0.20031,-0.61471 -1.09053,-1.54814 -1.09053,-1.54814 h -25.4383 c 0,0 -0.82347,0.66023 -1.068277,1.32047 -0.244811,0.66023 -0.46737,1.93516 -0.46737,1.93516 z"
       style="fill:#4d4d4d;stroke-width:0.22509667"
       id="path39" />
    <path
       inkscape:connector-curvature="0"
       class="st4"
       d="m 126.07468,266.33548 c 1.11279,-1.7075 2.09204,-3.96139 1.93624,-6.55679 -0.13353,-2.6637 -2.15879,-5.41846 -3.42736,-7.64959 h -21.56582 c -1.11279,2.049 -3.805719,5.03143 -3.96151,7.64959 -0.155788,2.64092 0.778942,4.84929 1.91399,6.55679 z"
       style="fill:#4d4d4d;stroke-width:0.22509667"
       id="path41" />
    <path
       inkscape:connector-curvature="0"
       class="st4"
       d="m 125.58506,250.19394 c -0.2003,-1.02451 -1.17954,-1.25217 -1.44661,-1.25217 -0.20031,0 -6.98831,0 -10.0596,0 0,0 -0.71218,0 -1.80272,0 -3.04904,0 -8.99132,0 -9.16937,0 -0.26706,0 -1.17955,0.25043 -1.37985,1.27494 -0.17805,0.81959 0.66767,1.43429 0.957,1.45706 0.15579,0 7.45567,0 10.50472,0 3.04903,0 11.21689,0 11.39493,0 0.28932,0 1.17955,-0.66023 1.0015,-1.47983 z"
       style="fill:#4d4d4d;stroke-width:0.22509667"
       id="path43" />
    <path
       inkscape:connector-curvature="0"
       class="st4"
       d="m 123.44852,226.83538 c -0.2003,-1.16111 -1.17955,-1.41154 -1.44662,-1.41154 -0.2003,0 -4.69596,0 -7.76725,0 0,0 -0.71219,0 -1.80272,0 -3.04905,0 -7.1441,0 -7.34441,0 -0.26707,0 -1.17955,0.29597 -1.37985,1.45706 -0.17805,0.93344 1.24632,1.7075 1.53565,1.73027 0.15579,0 5.05205,-0.0683 8.10109,-0.0683 3.04904,0 8.41268,0 8.59072,0 0.28933,-0.0455 1.69144,-0.77407 1.51339,-1.7075 z"
       style="fill:#4d4d4d;stroke-width:0.22509667"
       id="path45" />
  </g>
</svg>
