<?xml version="1.0" encoding="UTF-8" standalone="no"?>
<!-- Created with Inkscape (http://www.inkscape.org/) -->

<svg
   xmlns:dc="http://purl.org/dc/elements/1.1/"
   xmlns:cc="http://creativecommons.org/ns#"
   xmlns:rdf="http://www.w3.org/1999/02/22-rdf-syntax-ns#"
   xmlns:svg="http://www.w3.org/2000/svg"
   xmlns="http://www.w3.org/2000/svg"
   xmlns:xlink="http://www.w3.org/1999/xlink"
   xmlns:sodipodi="http://sodipodi.sourceforge.net/DTD/sodipodi-0.dtd"
   xmlns:inkscape="http://www.inkscape.org/namespaces/inkscape"
   width="112.17135mm"
   height="110.44367mm"
   viewBox="0 0 112.17135 110.44367"
   version="1.1"
   id="svg5658"
   sodipodi:docname="hello.svg"
   inkscape:version="0.92.2 (5c3e80d, 2017-08-06)">
  <defs
     id="defs5652">
    <clipPath
       id="SVGID_2_">
      <use
         style="overflow:visible"
         xlink:href="#SVGID_1_"
         id="use5"
         x="0"
         y="0"
         width="100%"
         height="100%" />
    </clipPath>
    <clipPath
       id="clipPath5875">
      <use
         style="overflow:visible"
         xlink:href="#SVGID_1_"
         id="use5873"
         x="0"
         y="0"
         width="100%"
         height="100%" />
    </clipPath>
    <clipPath
       id="clipPath5879">
      <use
         style="overflow:visible"
         xlink:href="#SVGID_1_"
         id="use5877"
         x="0"
         y="0"
         width="100%"
         height="100%" />
    </clipPath>
    <clipPath
       id="clipPath5883">
      <use
         style="overflow:visible"
         xlink:href="#SVGID_1_"
         id="use5881"
         x="0"
         y="0"
         width="100%"
         height="100%" />
    </clipPath>
    <clipPath
       id="clipPath5887">
      <use
         style="overflow:visible"
         xlink:href="#SVGID_1_"
         id="use5885"
         x="0"
         y="0"
         width="100%"
         height="100%" />
    </clipPath>
    <clipPath
       id="clipPath5891">
      <use
         style="overflow:visible"
         xlink:href="#SVGID_1_"
         id="use5889"
         x="0"
         y="0"
         width="100%"
         height="100%" />
    </clipPath>
    <clipPath
       id="clipPath5895">
      <use
         style="overflow:visible"
         xlink:href="#SVGID_1_"
         id="use5893"
         x="0"
         y="0"
         width="100%"
         height="100%" />
    </clipPath>
    <clipPath
       id="clipPath5899">
      <use
         style="overflow:visible"
         xlink:href="#SVGID_1_"
         id="use5897"
         x="0"
         y="0"
         width="100%"
         height="100%" />
    </clipPath>
    <clipPath
       id="clipPath5903">
      <use
         style="overflow:visible"
         xlink:href="#SVGID_1_"
         id="use5901"
         x="0"
         y="0"
         width="100%"
         height="100%" />
    </clipPath>
    <clipPath
       id="clipPath5907">
      <use
         style="overflow:visible"
         xlink:href="#SVGID_1_"
         id="use5905"
         x="0"
         y="0"
         width="100%"
         height="100%" />
    </clipPath>
    <clipPath
       id="clipPath5911">
      <use
         style="overflow:visible"
         xlink:href="#SVGID_1_"
         id="use5909"
         x="0"
         y="0"
         width="100%"
         height="100%" />
    </clipPath>
    <clipPath
       id="clipPath5915">
      <use
         style="overflow:visible"
         xlink:href="#SVGID_1_"
         id="use5913"
         x="0"
         y="0"
         width="100%"
         height="100%" />
    </clipPath>
    <clipPath
       id="clipPath5919">
      <use
         style="overflow:visible"
         xlink:href="#SVGID_1_"
         id="use5917"
         x="0"
         y="0"
         width="100%"
         height="100%" />
    </clipPath>
    <clipPath
       id="clipPath5923">
      <use
         style="overflow:visible"
         xlink:href="#SVGID_1_"
         id="use5921"
         x="0"
         y="0"
         width="100%"
         height="100%" />
    </clipPath>
    <clipPath
       id="clipPath5927">
      <use
         style="overflow:visible"
         xlink:href="#SVGID_1_"
         id="use5925"
         x="0"
         y="0"
         width="100%"
         height="100%" />
    </clipPath>
    <clipPath
       id="clipPath5931">
      <use
         style="overflow:visible"
         xlink:href="#SVGID_1_"
         id="use5929"
         x="0"
         y="0"
         width="100%"
         height="100%" />
    </clipPath>
    <clipPath
       id="clipPath5935">
      <use
         style="overflow:visible"
         xlink:href="#SVGID_1_"
         id="use5933"
         x="0"
         y="0"
         width="100%"
         height="100%" />
    </clipPath>
    <clipPath
       id="clipPath5939">
      <use
         style="overflow:visible"
         xlink:href="#SVGID_1_"
         id="use5937"
         x="0"
         y="0"
         width="100%"
         height="100%" />
    </clipPath>
    <clipPath
       id="clipPath5943">
      <use
         style="overflow:visible"
         xlink:href="#SVGID_1_"
         id="use5941"
         x="0"
         y="0"
         width="100%"
         height="100%" />
    </clipPath>
    <clipPath
       id="clipPath5947">
      <use
         style="overflow:visible"
         xlink:href="#SVGID_1_"
         id="use5945"
         x="0"
         y="0"
         width="100%"
         height="100%" />
    </clipPath>
    <clipPath
       id="clipPath5951">
      <use
         style="overflow:visible"
         xlink:href="#SVGID_1_"
         id="use5949"
         x="0"
         y="0"
         width="100%"
         height="100%" />
    </clipPath>
    <clipPath
       id="clipPath5955">
      <use
         style="overflow:visible"
         xlink:href="#SVGID_1_"
         id="use5953"
         x="0"
         y="0"
         width="100%"
         height="100%" />
    </clipPath>
    <clipPath
       id="clipPath5959">
      <use
         style="overflow:visible"
         xlink:href="#SVGID_1_"
         id="use5957"
         x="0"
         y="0"
         width="100%"
         height="100%" />
    </clipPath>
    <clipPath
       id="clipPath5963">
      <use
         style="overflow:visible"
         xlink:href="#SVGID_1_"
         id="use5961"
         x="0"
         y="0"
         width="100%"
         height="100%" />
    </clipPath>
    <clipPath
       id="clipPath5967">
      <use
         style="overflow:visible"
         xlink:href="#SVGID_1_"
         id="use5965"
         x="0"
         y="0"
         width="100%"
         height="100%" />
    </clipPath>
    <clipPath
       id="clipPath5971">
      <use
         style="overflow:visible"
         xlink:href="#SVGID_1_"
         id="use5969"
         x="0"
         y="0"
         width="100%"
         height="100%" />
    </clipPath>
    <clipPath
       id="clipPath5975">
      <use
         style="overflow:visible"
         xlink:href="#SVGID_1_"
         id="use5973"
         x="0"
         y="0"
         width="100%"
         height="100%" />
    </clipPath>
    <clipPath
       id="clipPath5979">
      <use
         style="overflow:visible"
         xlink:href="#SVGID_1_"
         id="use5977"
         x="0"
         y="0"
         width="100%"
         height="100%" />
    </clipPath>
    <clipPath
       id="clipPath5983">
      <use
         style="overflow:visible"
         xlink:href="#SVGID_1_"
         id="use5981"
         x="0"
         y="0"
         width="100%"
         height="100%" />
    </clipPath>
    <clipPath
       id="clipPath5987">
      <use
         style="overflow:visible"
         xlink:href="#SVGID_1_"
         id="use5985"
         x="0"
         y="0"
         width="100%"
         height="100%" />
    </clipPath>
    <clipPath
       id="clipPath5991">
      <use
         style="overflow:visible"
         xlink:href="#SVGID_1_"
         id="use5989"
         x="0"
         y="0"
         width="100%"
         height="100%" />
    </clipPath>
    <clipPath
       id="clipPath5995">
      <use
         style="overflow:visible"
         xlink:href="#SVGID_1_"
         id="use5993"
         x="0"
         y="0"
         width="100%"
         height="100%" />
    </clipPath>
    <clipPath
       id="clipPath5999">
      <use
         style="overflow:visible"
         xlink:href="#SVGID_1_"
         id="use5997"
         x="0"
         y="0"
         width="100%"
         height="100%" />
    </clipPath>
    <clipPath
       id="clipPath6003">
      <use
         style="overflow:visible"
         xlink:href="#SVGID_1_"
         id="use6001"
         x="0"
         y="0"
         width="100%"
         height="100%" />
    </clipPath>
    <clipPath
       id="clipPath6007">
      <use
         style="overflow:visible"
         xlink:href="#SVGID_1_"
         id="use6005"
         x="0"
         y="0"
         width="100%"
         height="100%" />
    </clipPath>
    <clipPath
       id="clipPath6011">
      <use
         style="overflow:visible"
         xlink:href="#SVGID_1_"
         id="use6009"
         x="0"
         y="0"
         width="100%"
         height="100%" />
    </clipPath>
    <clipPath
       id="clipPath6015">
      <use
         style="overflow:visible"
         xlink:href="#SVGID_1_"
         id="use6013"
         x="0"
         y="0"
         width="100%"
         height="100%" />
    </clipPath>
    <clipPath
       id="clipPath6019">
      <use
         style="overflow:visible"
         xlink:href="#SVGID_1_"
         id="use6017"
         x="0"
         y="0"
         width="100%"
         height="100%" />
    </clipPath>
    <clipPath
       id="clipPath6023">
      <use
         style="overflow:visible"
         xlink:href="#SVGID_1_"
         id="use6021"
         x="0"
         y="0"
         width="100%"
         height="100%" />
    </clipPath>
    <clipPath
       id="clipPath6027">
      <use
         style="overflow:visible"
         xlink:href="#SVGID_1_"
         id="use6025"
         x="0"
         y="0"
         width="100%"
         height="100%" />
    </clipPath>
    <clipPath
       id="clipPath6031">
      <use
         style="overflow:visible"
         xlink:href="#SVGID_1_"
         id="use6029"
         x="0"
         y="0"
         width="100%"
         height="100%" />
    </clipPath>
    <clipPath
       id="clipPath6035">
      <use
         style="overflow:visible"
         xlink:href="#SVGID_1_"
         id="use6033"
         x="0"
         y="0"
         width="100%"
         height="100%" />
    </clipPath>
    <clipPath
       id="clipPath6039">
      <use
         style="overflow:visible"
         xlink:href="#SVGID_1_"
         id="use6037"
         x="0"
         y="0"
         width="100%"
         height="100%" />
    </clipPath>
    <clipPath
       id="clipPath6043">
      <use
         style="overflow:visible"
         xlink:href="#SVGID_1_"
         id="use6041"
         x="0"
         y="0"
         width="100%"
         height="100%" />
    </clipPath>
    <clipPath
       id="clipPath6047">
      <use
         style="overflow:visible"
         xlink:href="#SVGID_1_"
         id="use6045"
         x="0"
         y="0"
         width="100%"
         height="100%" />
    </clipPath>
    <clipPath
       id="clipPath6051">
      <use
         style="overflow:visible"
         xlink:href="#SVGID_1_"
         id="use6049"
         x="0"
         y="0"
         width="100%"
         height="100%" />
    </clipPath>
    <clipPath
       id="clipPath6055">
      <use
         style="overflow:visible"
         xlink:href="#SVGID_1_"
         id="use6053"
         x="0"
         y="0"
         width="100%"
         height="100%" />
    </clipPath>
    <clipPath
       id="clipPath6059">
      <use
         style="overflow:visible"
         xlink:href="#SVGID_1_"
         id="use6057"
         x="0"
         y="0"
         width="100%"
         height="100%" />
    </clipPath>
    <clipPath
       id="clipPath6063">
      <use
         style="overflow:visible"
         xlink:href="#SVGID_1_"
         id="use6061"
         x="0"
         y="0"
         width="100%"
         height="100%" />
    </clipPath>
    <clipPath
       id="clipPath6067">
      <use
         style="overflow:visible"
         xlink:href="#SVGID_1_"
         id="use6065"
         x="0"
         y="0"
         width="100%"
         height="100%" />
    </clipPath>
    <clipPath
       id="clipPath6071">
      <use
         style="overflow:visible"
         xlink:href="#SVGID_1_"
         id="use6069"
         x="0"
         y="0"
         width="100%"
         height="100%" />
    </clipPath>
    <clipPath
       id="clipPath6075">
      <use
         style="overflow:visible"
         xlink:href="#SVGID_1_"
         id="use6073"
         x="0"
         y="0"
         width="100%"
         height="100%" />
    </clipPath>
    <clipPath
       id="clipPath6079">
      <use
         style="overflow:visible"
         xlink:href="#SVGID_1_"
         id="use6077"
         x="0"
         y="0"
         width="100%"
         height="100%" />
    </clipPath>
    <clipPath
       id="clipPath6083">
      <use
         style="overflow:visible"
         xlink:href="#SVGID_1_"
         id="use6081"
         x="0"
         y="0"
         width="100%"
         height="100%" />
    </clipPath>
    <clipPath
       id="clipPath6087">
      <use
         style="overflow:visible"
         xlink:href="#SVGID_1_"
         id="use6085"
         x="0"
         y="0"
         width="100%"
         height="100%" />
    </clipPath>
    <clipPath
       id="clipPath6091">
      <use
         style="overflow:visible"
         xlink:href="#SVGID_1_"
         id="use6089"
         x="0"
         y="0"
         width="100%"
         height="100%" />
    </clipPath>
    <clipPath
       id="clipPath6095">
      <use
         style="overflow:visible"
         xlink:href="#SVGID_1_"
         id="use6093"
         x="0"
         y="0"
         width="100%"
         height="100%" />
    </clipPath>
    <clipPath
       id="clipPath6099">
      <use
         style="overflow:visible"
         xlink:href="#SVGID_1_"
         id="use6097"
         x="0"
         y="0"
         width="100%"
         height="100%" />
    </clipPath>
    <clipPath
       id="clipPath6103">
      <use
         style="overflow:visible"
         xlink:href="#SVGID_1_"
         id="use6101"
         x="0"
         y="0"
         width="100%"
         height="100%" />
    </clipPath>
    <clipPath
       id="clipPath6107">
      <use
         style="overflow:visible"
         xlink:href="#SVGID_1_"
         id="use6105"
         x="0"
         y="0"
         width="100%"
         height="100%" />
    </clipPath>
    <clipPath
       id="clipPath6111">
      <use
         style="overflow:visible"
         xlink:href="#SVGID_1_"
         id="use6109"
         x="0"
         y="0"
         width="100%"
         height="100%" />
    </clipPath>
    <clipPath
       id="clipPath6115">
      <use
         style="overflow:visible"
         xlink:href="#SVGID_1_"
         id="use6113"
         x="0"
         y="0"
         width="100%"
         height="100%" />
    </clipPath>
    <clipPath
       id="clipPath6119">
      <use
         style="overflow:visible"
         xlink:href="#SVGID_1_"
         id="use6117"
         x="0"
         y="0"
         width="100%"
         height="100%" />
    </clipPath>
    <clipPath
       id="clipPath6123">
      <use
         style="overflow:visible"
         xlink:href="#SVGID_1_"
         id="use6121"
         x="0"
         y="0"
         width="100%"
         height="100%" />
    </clipPath>
    <clipPath
       id="clipPath6127">
      <use
         style="overflow:visible"
         xlink:href="#SVGID_1_"
         id="use6125"
         x="0"
         y="0"
         width="100%"
         height="100%" />
    </clipPath>
    <clipPath
       id="clipPath6131">
      <use
         style="overflow:visible"
         xlink:href="#SVGID_1_"
         id="use6129"
         x="0"
         y="0"
         width="100%"
         height="100%" />
    </clipPath>
    <clipPath
       id="clipPath6135">
      <use
         style="overflow:visible"
         xlink:href="#SVGID_1_"
         id="use6133"
         x="0"
         y="0"
         width="100%"
         height="100%" />
    </clipPath>
    <clipPath
       id="clipPath6139">
      <use
         style="overflow:visible"
         xlink:href="#SVGID_1_"
         id="use6137"
         x="0"
         y="0"
         width="100%"
         height="100%" />
    </clipPath>
    <clipPath
       id="clipPath6143">
      <use
         style="overflow:visible"
         xlink:href="#SVGID_1_"
         id="use6141"
         x="0"
         y="0"
         width="100%"
         height="100%" />
    </clipPath>
    <clipPath
       id="clipPath6147">
      <use
         style="overflow:visible"
         xlink:href="#SVGID_1_"
         id="use6145"
         x="0"
         y="0"
         width="100%"
         height="100%" />
    </clipPath>
    <clipPath
       id="clipPath6151">
      <use
         style="overflow:visible"
         xlink:href="#SVGID_1_"
         id="use6149"
         x="0"
         y="0"
         width="100%"
         height="100%" />
    </clipPath>
    <clipPath
       id="clipPath6155">
      <use
         style="overflow:visible"
         xlink:href="#SVGID_1_"
         id="use6153"
         x="0"
         y="0"
         width="100%"
         height="100%" />
    </clipPath>
    <clipPath
       id="clipPath6159">
      <use
         style="overflow:visible"
         xlink:href="#SVGID_1_"
         id="use6157"
         x="0"
         y="0"
         width="100%"
         height="100%" />
    </clipPath>
    <clipPath
       id="clipPath6163">
      <use
         style="overflow:visible"
         xlink:href="#SVGID_1_"
         id="use6161"
         x="0"
         y="0"
         width="100%"
         height="100%" />
    </clipPath>
    <clipPath
       id="clipPath6167">
      <use
         style="overflow:visible"
         xlink:href="#SVGID_1_"
         id="use6165"
         x="0"
         y="0"
         width="100%"
         height="100%" />
    </clipPath>
    <clipPath
       id="clipPath6171">
      <use
         style="overflow:visible"
         xlink:href="#SVGID_1_"
         id="use6169"
         x="0"
         y="0"
         width="100%"
         height="100%" />
    </clipPath>
    <clipPath
       id="clipPath6175">
      <use
         style="overflow:visible"
         xlink:href="#SVGID_1_"
         id="use6173"
         x="0"
         y="0"
         width="100%"
         height="100%" />
    </clipPath>
    <clipPath
       id="clipPath6179">
      <use
         style="overflow:visible"
         xlink:href="#SVGID_1_"
         id="use6177"
         x="0"
         y="0"
         width="100%"
         height="100%" />
    </clipPath>
    <path
       d="m -0.1,0 h 336 v 235.2 h -336 z"
       id="SVGID_1_"
       inkscape:connector-curvature="0" />
    <clipPath
       id="SVGID_2_-4">
      <use
         height="100%"
         width="100%"
         y="0"
         x="0"
         style="overflow:visible"
         xlink:href="#SVGID_1_-4"
         id="use5-5" />
    </clipPath>
    <clipPath
       id="clipPath8229">
      <use
         height="100%"
         width="100%"
         y="0"
         x="0"
         style="overflow:visible"
         xlink:href="#SVGID_1_-4"
         id="use8227" />
    </clipPath>
    <clipPath
       id="clipPath8233">
      <use
         height="100%"
         width="100%"
         y="0"
         x="0"
         style="overflow:visible"
         xlink:href="#SVGID_1_-4"
         id="use8231" />
    </clipPath>
    <clipPath
       id="clipPath8237">
      <use
         height="100%"
         width="100%"
         y="0"
         x="0"
         style="overflow:visible"
         xlink:href="#SVGID_1_-4"
         id="use8235" />
    </clipPath>
    <clipPath
       id="clipPath8241">
      <use
         height="100%"
         width="100%"
         y="0"
         x="0"
         style="overflow:visible"
         xlink:href="#SVGID_1_-4"
         id="use8239" />
    </clipPath>
    <clipPath
       id="clipPath8245">
      <use
         height="100%"
         width="100%"
         y="0"
         x="0"
         style="overflow:visible"
         xlink:href="#SVGID_1_-4"
         id="use8243" />
    </clipPath>
    <clipPath
       id="clipPath8249">
      <use
         height="100%"
         width="100%"
         y="0"
         x="0"
         style="overflow:visible"
         xlink:href="#SVGID_1_-4"
         id="use8247" />
    </clipPath>
    <clipPath
       id="clipPath8253">
      <use
         height="100%"
         width="100%"
         y="0"
         x="0"
         style="overflow:visible"
         xlink:href="#SVGID_1_-4"
         id="use8251" />
    </clipPath>
    <clipPath
       id="clipPath8257">
      <use
         height="100%"
         width="100%"
         y="0"
         x="0"
         style="overflow:visible"
         xlink:href="#SVGID_1_-4"
         id="use8255" />
    </clipPath>
    <clipPath
       id="clipPath8261">
      <use
         height="100%"
         width="100%"
         y="0"
         x="0"
         style="overflow:visible"
         xlink:href="#SVGID_1_-4"
         id="use8259" />
    </clipPath>
    <clipPath
       id="clipPath8265">
      <use
         height="100%"
         width="100%"
         y="0"
         x="0"
         style="overflow:visible"
         xlink:href="#SVGID_1_-4"
         id="use8263" />
    </clipPath>
    <clipPath
       id="clipPath8269">
      <use
         height="100%"
         width="100%"
         y="0"
         x="0"
         style="overflow:visible"
         xlink:href="#SVGID_1_-4"
         id="use8267" />
    </clipPath>
    <clipPath
       id="clipPath8273">
      <use
         height="100%"
         width="100%"
         y="0"
         x="0"
         style="overflow:visible"
         xlink:href="#SVGID_1_-4"
         id="use8271" />
    </clipPath>
    <clipPath
       id="clipPath8277">
      <use
         height="100%"
         width="100%"
         y="0"
         x="0"
         style="overflow:visible"
         xlink:href="#SVGID_1_-4"
         id="use8275" />
    </clipPath>
    <clipPath
       id="clipPath8281">
      <use
         height="100%"
         width="100%"
         y="0"
         x="0"
         style="overflow:visible"
         xlink:href="#SVGID_1_-4"
         id="use8279" />
    </clipPath>
    <clipPath
       id="clipPath8285">
      <use
         height="100%"
         width="100%"
         y="0"
         x="0"
         style="overflow:visible"
         xlink:href="#SVGID_1_-4"
         id="use8283" />
    </clipPath>
    <clipPath
       id="clipPath8289">
      <use
         height="100%"
         width="100%"
         y="0"
         x="0"
         style="overflow:visible"
         xlink:href="#SVGID_1_-4"
         id="use8287" />
    </clipPath>
    <clipPath
       id="clipPath8293">
      <use
         height="100%"
         width="100%"
         y="0"
         x="0"
         style="overflow:visible"
         xlink:href="#SVGID_1_-4"
         id="use8291" />
    </clipPath>
    <clipPath
       id="clipPath8297">
      <use
         height="100%"
         width="100%"
         y="0"
         x="0"
         style="overflow:visible"
         xlink:href="#SVGID_1_-4"
         id="use8295" />
    </clipPath>
    <clipPath
       id="clipPath8301">
      <use
         height="100%"
         width="100%"
         y="0"
         x="0"
         style="overflow:visible"
         xlink:href="#SVGID_1_-4"
         id="use8299" />
    </clipPath>
    <clipPath
       id="clipPath8305">
      <use
         height="100%"
         width="100%"
         y="0"
         x="0"
         style="overflow:visible"
         xlink:href="#SVGID_1_-4"
         id="use8303" />
    </clipPath>
    <clipPath
       id="clipPath8309">
      <use
         height="100%"
         width="100%"
         y="0"
         x="0"
         style="overflow:visible"
         xlink:href="#SVGID_1_-4"
         id="use8307" />
    </clipPath>
    <clipPath
       id="clipPath8313">
      <use
         height="100%"
         width="100%"
         y="0"
         x="0"
         style="overflow:visible"
         xlink:href="#SVGID_1_-4"
         id="use8311" />
    </clipPath>
    <clipPath
       id="clipPath8317">
      <use
         height="100%"
         width="100%"
         y="0"
         x="0"
         style="overflow:visible"
         xlink:href="#SVGID_1_-4"
         id="use8315" />
    </clipPath>
    <clipPath
       id="clipPath8321">
      <use
         height="100%"
         width="100%"
         y="0"
         x="0"
         style="overflow:visible"
         xlink:href="#SVGID_1_-4"
         id="use8319" />
    </clipPath>
    <clipPath
       id="clipPath8325">
      <use
         height="100%"
         width="100%"
         y="0"
         x="0"
         style="overflow:visible"
         xlink:href="#SVGID_1_-4"
         id="use8323" />
    </clipPath>
    <clipPath
       id="clipPath8329">
      <use
         height="100%"
         width="100%"
         y="0"
         x="0"
         style="overflow:visible"
         xlink:href="#SVGID_1_-4"
         id="use8327" />
    </clipPath>
    <clipPath
       id="clipPath8333">
      <use
         height="100%"
         width="100%"
         y="0"
         x="0"
         style="overflow:visible"
         xlink:href="#SVGID_1_-4"
         id="use8331" />
    </clipPath>
    <clipPath
       id="clipPath8337">
      <use
         height="100%"
         width="100%"
         y="0"
         x="0"
         style="overflow:visible"
         xlink:href="#SVGID_1_-4"
         id="use8335" />
    </clipPath>
    <clipPath
       id="clipPath8341">
      <use
         height="100%"
         width="100%"
         y="0"
         x="0"
         style="overflow:visible"
         xlink:href="#SVGID_1_-4"
         id="use8339" />
    </clipPath>
    <clipPath
       id="clipPath8345">
      <use
         height="100%"
         width="100%"
         y="0"
         x="0"
         style="overflow:visible"
         xlink:href="#SVGID_1_-4"
         id="use8343" />
    </clipPath>
    <clipPath
       id="clipPath8349">
      <use
         height="100%"
         width="100%"
         y="0"
         x="0"
         style="overflow:visible"
         xlink:href="#SVGID_1_-4"
         id="use8347" />
    </clipPath>
    <clipPath
       id="clipPath8353">
      <use
         height="100%"
         width="100%"
         y="0"
         x="0"
         style="overflow:visible"
         xlink:href="#SVGID_1_-4"
         id="use8351" />
    </clipPath>
    <clipPath
       id="clipPath8357">
      <use
         height="100%"
         width="100%"
         y="0"
         x="0"
         style="overflow:visible"
         xlink:href="#SVGID_1_-4"
         id="use8355" />
    </clipPath>
    <clipPath
       id="clipPath8361">
      <use
         height="100%"
         width="100%"
         y="0"
         x="0"
         style="overflow:visible"
         xlink:href="#SVGID_1_-4"
         id="use8359" />
    </clipPath>
    <clipPath
       id="clipPath8365">
      <use
         height="100%"
         width="100%"
         y="0"
         x="0"
         style="overflow:visible"
         xlink:href="#SVGID_1_-4"
         id="use8363" />
    </clipPath>
    <clipPath
       id="clipPath8369">
      <use
         height="100%"
         width="100%"
         y="0"
         x="0"
         style="overflow:visible"
         xlink:href="#SVGID_1_-4"
         id="use8367" />
    </clipPath>
    <clipPath
       id="clipPath8373">
      <use
         height="100%"
         width="100%"
         y="0"
         x="0"
         style="overflow:visible"
         xlink:href="#SVGID_1_-4"
         id="use8371" />
    </clipPath>
    <clipPath
       id="clipPath8377">
      <use
         height="100%"
         width="100%"
         y="0"
         x="0"
         style="overflow:visible"
         xlink:href="#SVGID_1_-4"
         id="use8375" />
    </clipPath>
    <clipPath
       id="clipPath8381">
      <use
         height="100%"
         width="100%"
         y="0"
         x="0"
         style="overflow:visible"
         xlink:href="#SVGID_1_-4"
         id="use8379" />
    </clipPath>
    <clipPath
       id="clipPath8385">
      <use
         height="100%"
         width="100%"
         y="0"
         x="0"
         style="overflow:visible"
         xlink:href="#SVGID_1_-4"
         id="use8383" />
    </clipPath>
    <clipPath
       id="clipPath8389">
      <use
         height="100%"
         width="100%"
         y="0"
         x="0"
         style="overflow:visible"
         xlink:href="#SVGID_1_-4"
         id="use8387" />
    </clipPath>
    <clipPath
       id="clipPath8393">
      <use
         height="100%"
         width="100%"
         y="0"
         x="0"
         style="overflow:visible"
         xlink:href="#SVGID_1_-4"
         id="use8391" />
    </clipPath>
    <clipPath
       id="clipPath8397">
      <use
         height="100%"
         width="100%"
         y="0"
         x="0"
         style="overflow:visible"
         xlink:href="#SVGID_1_-4"
         id="use8395" />
    </clipPath>
    <clipPath
       id="clipPath8401">
      <use
         height="100%"
         width="100%"
         y="0"
         x="0"
         style="overflow:visible"
         xlink:href="#SVGID_1_-4"
         id="use8399" />
    </clipPath>
    <clipPath
       id="clipPath8405">
      <use
         height="100%"
         width="100%"
         y="0"
         x="0"
         style="overflow:visible"
         xlink:href="#SVGID_1_-4"
         id="use8403" />
    </clipPath>
    <clipPath
       id="clipPath8409">
      <use
         height="100%"
         width="100%"
         y="0"
         x="0"
         style="overflow:visible"
         xlink:href="#SVGID_1_-4"
         id="use8407" />
    </clipPath>
    <clipPath
       id="clipPath8413">
      <use
         height="100%"
         width="100%"
         y="0"
         x="0"
         style="overflow:visible"
         xlink:href="#SVGID_1_-4"
         id="use8411" />
    </clipPath>
    <clipPath
       id="clipPath8417">
      <use
         height="100%"
         width="100%"
         y="0"
         x="0"
         style="overflow:visible"
         xlink:href="#SVGID_1_-4"
         id="use8415" />
    </clipPath>
    <clipPath
       id="clipPath8421">
      <use
         height="100%"
         width="100%"
         y="0"
         x="0"
         style="overflow:visible"
         xlink:href="#SVGID_1_-4"
         id="use8419" />
    </clipPath>
    <clipPath
       id="clipPath8425">
      <use
         height="100%"
         width="100%"
         y="0"
         x="0"
         style="overflow:visible"
         xlink:href="#SVGID_1_-4"
         id="use8423" />
    </clipPath>
    <clipPath
       id="clipPath8429">
      <use
         height="100%"
         width="100%"
         y="0"
         x="0"
         style="overflow:visible"
         xlink:href="#SVGID_1_-4"
         id="use8427" />
    </clipPath>
    <clipPath
       id="clipPath8433">
      <use
         height="100%"
         width="100%"
         y="0"
         x="0"
         style="overflow:visible"
         xlink:href="#SVGID_1_-4"
         id="use8431" />
    </clipPath>
    <clipPath
       id="clipPath8437">
      <use
         height="100%"
         width="100%"
         y="0"
         x="0"
         style="overflow:visible"
         xlink:href="#SVGID_1_-4"
         id="use8435" />
    </clipPath>
    <clipPath
       id="clipPath8441">
      <use
         height="100%"
         width="100%"
         y="0"
         x="0"
         style="overflow:visible"
         xlink:href="#SVGID_1_-4"
         id="use8439" />
    </clipPath>
    <clipPath
       id="clipPath8445">
      <use
         height="100%"
         width="100%"
         y="0"
         x="0"
         style="overflow:visible"
         xlink:href="#SVGID_1_-4"
         id="use8443" />
    </clipPath>
    <clipPath
       id="clipPath8449">
      <use
         height="100%"
         width="100%"
         y="0"
         x="0"
         style="overflow:visible"
         xlink:href="#SVGID_1_-4"
         id="use8447" />
    </clipPath>
    <clipPath
       id="clipPath8453">
      <use
         height="100%"
         width="100%"
         y="0"
         x="0"
         style="overflow:visible"
         xlink:href="#SVGID_1_-4"
         id="use8451" />
    </clipPath>
    <clipPath
       id="clipPath8457">
      <use
         height="100%"
         width="100%"
         y="0"
         x="0"
         style="overflow:visible"
         xlink:href="#SVGID_1_-4"
         id="use8455" />
    </clipPath>
    <clipPath
       id="clipPath8461">
      <use
         height="100%"
         width="100%"
         y="0"
         x="0"
         style="overflow:visible"
         xlink:href="#SVGID_1_-4"
         id="use8459" />
    </clipPath>
    <clipPath
       id="clipPath8465">
      <use
         height="100%"
         width="100%"
         y="0"
         x="0"
         style="overflow:visible"
         xlink:href="#SVGID_1_-4"
         id="use8463" />
    </clipPath>
    <clipPath
       id="clipPath8469">
      <use
         height="100%"
         width="100%"
         y="0"
         x="0"
         style="overflow:visible"
         xlink:href="#SVGID_1_-4"
         id="use8467" />
    </clipPath>
    <clipPath
       id="clipPath8473">
      <use
         height="100%"
         width="100%"
         y="0"
         x="0"
         style="overflow:visible"
         xlink:href="#SVGID_1_-4"
         id="use8471" />
    </clipPath>
    <clipPath
       id="clipPath8477">
      <use
         height="100%"
         width="100%"
         y="0"
         x="0"
         style="overflow:visible"
         xlink:href="#SVGID_1_-4"
         id="use8475" />
    </clipPath>
    <clipPath
       id="clipPath8481">
      <use
         height="100%"
         width="100%"
         y="0"
         x="0"
         style="overflow:visible"
         xlink:href="#SVGID_1_-4"
         id="use8479" />
    </clipPath>
    <clipPath
       id="clipPath8485">
      <use
         height="100%"
         width="100%"
         y="0"
         x="0"
         style="overflow:visible"
         xlink:href="#SVGID_1_-4"
         id="use8483" />
    </clipPath>
    <clipPath
       id="clipPath8489">
      <use
         height="100%"
         width="100%"
         y="0"
         x="0"
         style="overflow:visible"
         xlink:href="#SVGID_1_-4"
         id="use8487" />
    </clipPath>
    <clipPath
       id="clipPath8493">
      <use
         height="100%"
         width="100%"
         y="0"
         x="0"
         style="overflow:visible"
         xlink:href="#SVGID_1_-4"
         id="use8491" />
    </clipPath>
    <clipPath
       id="clipPath8497">
      <use
         height="100%"
         width="100%"
         y="0"
         x="0"
         style="overflow:visible"
         xlink:href="#SVGID_1_-4"
         id="use8495" />
    </clipPath>
    <clipPath
       id="clipPath8501">
      <use
         height="100%"
         width="100%"
         y="0"
         x="0"
         style="overflow:visible"
         xlink:href="#SVGID_1_-4"
         id="use8499" />
    </clipPath>
    <clipPath
       id="clipPath8505">
      <use
         height="100%"
         width="100%"
         y="0"
         x="0"
         style="overflow:visible"
         xlink:href="#SVGID_1_-4"
         id="use8503" />
    </clipPath>
    <clipPath
       id="clipPath8509">
      <use
         height="100%"
         width="100%"
         y="0"
         x="0"
         style="overflow:visible"
         xlink:href="#SVGID_1_-4"
         id="use8507" />
    </clipPath>
    <clipPath
       id="clipPath8513">
      <use
         height="100%"
         width="100%"
         y="0"
         x="0"
         style="overflow:visible"
         xlink:href="#SVGID_1_-4"
         id="use8511" />
    </clipPath>
    <clipPath
       id="clipPath8517">
      <use
         height="100%"
         width="100%"
         y="0"
         x="0"
         style="overflow:visible"
         xlink:href="#SVGID_1_-4"
         id="use8515" />
    </clipPath>
    <clipPath
       id="clipPath8521">
      <use
         height="100%"
         width="100%"
         y="0"
         x="0"
         style="overflow:visible"
         xlink:href="#SVGID_1_-4"
         id="use8519" />
    </clipPath>
    <clipPath
       id="clipPath8525">
      <use
         height="100%"
         width="100%"
         y="0"
         x="0"
         style="overflow:visible"
         xlink:href="#SVGID_1_-4"
         id="use8523" />
    </clipPath>
    <clipPath
       id="clipPath8529">
      <use
         height="100%"
         width="100%"
         y="0"
         x="0"
         style="overflow:visible"
         xlink:href="#SVGID_1_-4"
         id="use8527" />
    </clipPath>
    <clipPath
       id="clipPath8533">
      <use
         height="100%"
         width="100%"
         y="0"
         x="0"
         style="overflow:visible"
         xlink:href="#SVGID_1_-4"
         id="use8531" />
    </clipPath>
    <path
       inkscape:connector-curvature="0"
       d="m -0.1,0 h 336 v 235.2 h -336 z"
       id="SVGID_1_-4" />
  </defs>
  <sodipodi:namedview
     id="base"
     pagecolor="#ffffff"
     bordercolor="#666666"
     borderopacity="1.0"
     inkscape:pageopacity="0.0"
     inkscape:pageshadow="2"
     inkscape:zoom="3.1122977"
     inkscape:cx="319.06798"
     inkscape:cy="190.87217"
     inkscape:document-units="mm"
     inkscape:current-layer="layer1"
     showgrid="false"
     inkscape:pagecheckerboard="false"
     showguides="false"
     inkscape:lockguides="true"
     inkscape:window-width="1920"
     inkscape:window-height="1017"
     inkscape:window-x="-8"
     inkscape:window-y="-8"
     inkscape:window-maximized="1"
     fit-margin-top="0"
     fit-margin-left="0"
     fit-margin-right="0"
     fit-margin-bottom="0">
    <inkscape:grid
       type="xygrid"
       id="grid5660"
       originx="-145.34761"
       originy="-119.97029" />
  </sodipodi:namedview>
  <metadata
     id="metadata5655">
    <rdf:RDF>
      <cc:Work
         rdf:about="">
        <dc:format>image/svg+xml</dc:format>
        <dc:type
           rdf:resource="http://purl.org/dc/dcmitype/StillImage" />
        <dc:title />
      </cc:Work>
    </rdf:RDF>
  </metadata>
  <g
     inkscape:label="Layer 1"
     inkscape:groupmode="layer"
     id="layer1"
     transform="translate(-72.445536,-94.355478)">
    <path
       style="fill:#666666;fill-opacity:1;stroke:#666666;stroke-width:0.34870064"
       id="path9109"
       sodipodi:type="arc"
       sodipodi:cx="128.53125"
       sodipodi:cy="149.57739"
       sodipodi:rx="55.911282"
       sodipodi:ry="55.047386"
       sodipodi:start="0"
       sodipodi:end="6.2592615"
       d="M 184.44253,149.57739 A 55.911282,55.047386 0 0 1 128.86565,204.62379 55.911282,55.047386 0 0 1 72.623968,150.23585 55.911282,55.047386 0 0 1 127.5281,94.538867 55.911282,55.047386 0 0 1 184.42653,148.26058"
       sodipodi:open="true" />
    <g
       transform="matrix(1.0992391,0,0,1.1120803,-55.323571,32.031426)"
       id="g524">
      <path
         class="st81"
         d="m 147.3,116.1 c -0.8,-0.3 -7.4,-3.3 -8.4,-8.7 -1,-5.6 7.6,-10.3 9.3,-11.2 l 1.7,3.3 c -3.3,1.7 -7.7,5.2 -7.4,7.2 0.5,2.9 4.7,5.2 6.2,5.9 z"
         style="fill:#dedfe0"
         id="path522"
         inkscape:connector-curvature="0" />
    </g>
    <g
       transform="matrix(1.0992391,0,0,1.1120803,-52.222097,35.032644)"
       id="g528">
      <path
         class="st81"
         d="m 188.5,116.1 -1.5,-3.4 c 1.6,-0.7 5.7,-3 6.2,-5.9 0.4,-2 -4,-5.5 -7.4,-7.2 l 1.7,-3.3 c 1.7,0.9 10.3,5.6 9.3,11.2 -0.9,5.2 -7.5,8.2 -8.3,8.6 z"
         style="fill:#dedfe0"
         id="path526"
         inkscape:connector-curvature="0" />
    </g>
    <path
       class="st85"
       d="m 149.35474,111.43394 c -8.57406,-9.6751 -20.11607,-9.11903 -20.11607,-9.11903 0,0 -11.54201,-0.55607 -20.11608,9.11903 -4.94658,5.56042 -8.13436,13.12256 -8.13436,20.12867 0,7.00612 3.07786,14.79066 7.58475,19.35021 h 20.66569 20.6657 c 4.50687,-4.55955 7.58475,-12.34409 7.58475,-19.35021 0,-7.00611 -3.07788,-14.56825 -8.13438,-20.12867 z"
       style="opacity:0.5;fill:#f68256;stroke-width:1.10564113"
       id="path532"
       inkscape:connector-curvature="0" />
    <path
       class="st85"
       d="m 147.26619,115.54867 c -7.69467,-8.56301 -18.02752,-8.11821 -18.02752,-8.11821 0,0 -10.33286,-0.4448 -18.02752,8.11821 -4.50689,5.00436 -7.25498,11.78801 -7.25498,18.0157 0,6.22765 2.74809,13.23371 6.81528,17.34845 h 18.46722 18.46721 c 4.06719,-4.11474 6.81529,-11.1208 6.81529,-17.34845 0,-6.22769 -2.7481,-13.01134 -7.25498,-18.0157 z"
       style="opacity:0.5;fill:#f68256;stroke-width:1.10564113"
       id="path534"
       inkscape:connector-curvature="0" />
    <path
       class="st86"
       d="m 149.35474,111.6564 c -8.57406,-9.6751 -20.11607,-9.11909 -20.11607,-9.11909 0,0 -11.54201,-0.55601 -20.11608,9.11909 -4.94658,5.56037 -8.13436,13.1225 -8.13436,20.12862 0,7.00612 3.07786,14.79066 7.58475,19.3502 h 20.66569 20.6657 c 4.50687,-4.55954 7.58475,-12.34408 7.58475,-19.3502 0,-7.00612 -3.07788,-14.56825 -8.13438,-20.12862 z"
       style="fill:#f9fafb;stroke-width:1.10564113"
       id="path584"
       inkscape:connector-curvature="0" />
    <path
       class="st79"
       d="m 147.04634,115.77107 c -7.58476,-8.56301 -17.80767,-8.11819 -17.80767,-8.11819 0,0 -10.22293,-0.44482 -17.80768,8.11819 -4.39696,5.00436 -7.25498,11.78807 -7.25498,18.01572 0,6.22764 2.7481,13.23376 6.70537,17.34843 h 18.35729 18.3573 c 3.95726,-4.11467 6.70535,-11.12079 6.70535,-17.34843 0,-6.22765 -2.74809,-13.01136 -7.25498,-18.01572 z"
       style="fill:#1bb2cc;stroke-width:1.10564113"
       id="path586"
       inkscape:connector-curvature="0" />
    <g
       transform="matrix(1.0992391,0,0,1.1120803,-55.323571,32.031426)"
       id="g590">
      <path
         class="st87"
         d="m 145.4,94.3 c 0.7,4.8 2.9,9.7 5.9,12.7 h 33.3 c 2.8,-2.8 4.9,-7.2 5.7,-11.6 -5.4,4.7 -13.2,7.6 -21.9,7.6 -9.2,0.1 -17.5,-3.3 -23,-8.7 z"
         style="fill:#19a5bd"
         id="path588"
         inkscape:connector-curvature="0" />
    </g>
    <path
       class="st77"
       d="m 147.92574,116.77196 c 0,0.1112 -0.10997,0.2224 -0.10997,0.33361 -0.54961,13.1225 -5.82596,24.79936 -14.61988,34.02965 h 14.40004 c 3.95726,-4.11473 6.70535,-11.12079 6.70535,-17.34849 0,-5.78278 -2.41832,-12.12168 -6.37558,-17.01483 z"
       style="opacity:0.1;fill:#ffffff;stroke-width:1.10564113"
       id="path592"
       inkscape:connector-curvature="0" />
    <path
       class="st77"
       d="m 112.64015,137.67905 c 1.86872,1.11209 3.84735,1.89056 5.93589,2.55778 -1.09923,-10.00871 0.98932,-19.90622 6.37559,-28.58043 0,-0.1112 0.10997,-0.22241 0.10997,-0.22241 -5.0565,1.33449 -9.67331,4.44829 -12.42141,8.45182 -2.96795,4.22587 -4.39695,10.45352 -3.62749,15.12426 z"
       style="opacity:0.1;fill:#ffffff;stroke-width:1.10564113"
       id="path594"
       inkscape:connector-curvature="0" />
    <path
       class="st90"
       d="m 110.22184,199.39951 c 0,1.4457 0.10996,3.1138 0.21982,5.22676 h 15.93897 v -7.67339 z"
       style="fill:#f9fffe;stroke-width:1.10564113"
       id="path602"
       inkscape:connector-curvature="0" />
    <path
       class="st90"
       d="m 100.21876,163.70176 c 0,7.00607 0,29.02524 0,29.02524 0,0 -0.879385,6.89492 8.68399,6.89492 l 0.87939,-0.1112 0.4397,-0.11121 c -0.10997,-4.44833 -0.10997,-6.89491 -0.10997,-18.0157 0,-19.23894 1.53893,-28.13562 1.53893,-28.13562 0,0 -11.43208,3.44745 -11.43208,10.45357 z"
       style="fill:#f9fffe;stroke-width:1.10564113"
       id="path604"
       inkscape:connector-curvature="0" />
    <path
       d="m 126.38065,196.95288 2.85802,-0.33361 h -2.85802 z"
       class="st90"
       style="fill:#f9fffe;stroke-width:1.10564113"
       id="path606"
       inkscape:connector-curvature="0" />
    <path
       class="st90"
       d="m 148.36542,199.39951 -16.15881,-2.33537 v 7.67334 h 15.93897 c 0.10996,-2.33537 0.10996,-3.89227 0.21983,-5.33797 z"
       style="fill:#f9fffe;stroke-width:1.10564113"
       id="path612"
       inkscape:connector-curvature="0" />
    <path
       d="m 129.23867,196.61927 2.96796,0.33361 v -0.33361 z"
       class="st90"
       style="fill:#f9fffe;stroke-width:1.10564113"
       id="path614"
       inkscape:connector-curvature="0" />
    <g
       transform="matrix(1.0992391,0,0,1.1120803,-55.158206,32.007802)"
       id="g598">
      <path
         class="st89"
         d="m 150.6,150.5 14.7,-2.1 V 148 h 2.6 2.6 v 0.4 l 14.7,2.1 c 0.1,-4 0,-6.2 0,-16.2 0,-17.3 -1.4,-25.3 -1.4,-25.3 h -32.1 c 0,0 -1.4,8 -1.4,25.3 0.2,10 0.2,12.2 0.3,16.2 z"
         style="fill:#f2f7f6"
         id="path596"
         inkscape:connector-curvature="0" />
    </g>
    <path
       class="st81"
       d="m 150.01428,153.47059 c 0,0.55601 -0.87938,1.00088 -2.08854,1.00088 H 110.5516 c -1.09924,0 -2.08855,-0.44481 -2.08855,-1.00088 v -2.22417 c 0,-0.55601 0.87939,-1.00088 2.08855,-1.00088 h 37.37414 c 1.09923,0 2.08854,0.44481 2.08854,1.00088 z"
       style="fill:#dedfe0;stroke-width:1.10564113"
       id="path616"
       inkscape:connector-curvature="0" />
    <path
       d="m 115.38825,160.81032 h 27.81076 v 29.91492 h -27.81076 z"
       class="st79"
       style="fill:#1bb2cc;stroke-width:1.10564113"
       id="path618"
       inkscape:connector-curvature="0" />
    <path
       d="M 99.339365,178.49236 H 110.1119 v 1.4457 H 99.339365 Z"
       class="st79"
       style="fill:#1bb2cc;stroke-width:1.10564113"
       id="path630"
       inkscape:connector-curvature="0" />
    <path
       d="M 99.339365,175.71218 H 110.1119 v 1.44569 H 99.339365 Z"
       class="st79"
       style="fill:#1bb2cc;stroke-width:1.10564113"
       id="path632"
       inkscape:connector-curvature="0" />
    <path
       d="M 99.339365,188.72348 H 110.1119 v 1.44575 H 99.339365 Z"
       class="st79"
       style="fill:#1bb2cc;stroke-width:1.10564113"
       id="path634"
       inkscape:connector-curvature="0" />
    <path
       d="m 119.12566,164.70259 h 8.13437 v 4.89315 h -8.13437 z"
       class="st90"
       style="fill:#f9fffe;stroke-width:1.10564113"
       id="path636"
       inkscape:connector-curvature="0" />
    <path
       d="m 119.12566,178.49236 h 19.67638 v 4.89315 h -19.67638 z"
       class="st90"
       style="fill:#f9fffe;stroke-width:1.10564113"
       id="path638"
       inkscape:connector-curvature="0" />
    <path
       d="m 119.12566,171.4863 h 2.96794 v 4.8931 h -2.96794 z"
       class="st90"
       style="fill:#f9fffe;stroke-width:1.10564113"
       id="path640"
       inkscape:connector-curvature="0" />
    <path
       d="m 124.40202,171.4863 h 2.96794 v 4.8931 h -2.96794 z"
       class="st90"
       style="fill:#f9fffe;stroke-width:1.10564113"
       id="path642"
       inkscape:connector-curvature="0" />
    <path
       d="m 130.66768,171.4863 h 2.96794 v 4.8931 h -2.96794 z"
       class="st90"
       style="fill:#f9fffe;stroke-width:1.10564113"
       id="path644"
       inkscape:connector-curvature="0" />
    <path
       d="m 130.66768,164.70259 h 8.13436 v 4.89315 h -8.13436 z"
       class="st90"
       style="fill:#f9fffe;stroke-width:1.10564113"
       id="path648"
       inkscape:connector-curvature="0" />
    <path
       style="fill:#ffffff;fill-opacity:1;stroke:#666666;stroke-width:0.06681738"
       d="m 149.13655,169.06538 c -0.79655,-0.0762 -1.34202,-0.11184 -1.43485,-0.2853 -0.12879,-0.24064 -0.1991,-0.76396 -0.26583,-1.97861 -0.066,-1.20079 -0.43568,-5.55157 -0.50161,-5.90303 -0.0172,-0.0919 -0.0486,-0.42262 -0.0696,-0.73499 -0.0211,-0.31238 -0.0525,-0.71829 -0.0698,-0.90204 -0.0673,-0.71231 -0.0844,-0.90807 -0.18677,-2.13816 -0.0581,-0.69824 -0.0923,-1.51708 -0.13365,-1.8774 -0.0414,-0.36033 -0.0403,-0.76101 -0.0263,-0.77491 0.0139,-0.0139 0.37487,9.5e-4 0.88876,-0.0248 l 0.93434,-0.0468 c 0.71388,-0.0703 2.00213,-0.37196 1.74304,-0.92875 1.26693,-0.64566 1.77473,-1.22602 2.8167,-1.8982 0.84421,-0.5492 1.32051,-1.59856 1.32051,-1.59856 0.61813,-1.25193 1.68211,-3.14025 2.6392,-7.45013 0.70355,-3.16817 1.11026,-4.82101 1.56755,-6.37037 1.37217,-4.64915 2.48981,-5.4813 4.62334,-5.49361 1.92504,-0.0111 3.85307,1.27838 4.37907,6.31813 0.1347,1.29051 0.11176,5.9228 -0.0369,7.45014 -0.90145,9.26229 -5.19643,16.10622 -9.152,19.52969 -3.34249,2.89287 -4.88796,4.03381 -7.01069,4.79713 -0.69693,0.13335 -1.42835,0.46678 -2.02451,0.31057 z"
       id="path9501"
       inkscape:connector-curvature="0"
       sodipodi:nodetypes="ccccccccccccccsccccccc" />
    <path
       d="m 157.80385,137.68958 9.98122,0.0472 0.0472,1.46932 c -4.96472,0.60703 -7.75581,-0.0318 -10.1955,-0.10427 z"
       class="st79"
       style="fill:#1bb2cc;stroke-width:1.04391205"
       id="path630-5"
       inkscape:connector-curvature="0"
       sodipodi:nodetypes="ccccc" />
    <path
       d="m 152.51159,151.79712 11.05697,6.07728 -0.84096,1.34651 c -4.60309,-1.95666 -9.43909,-5.04885 -11.37393,-6.59133 z"
       class="st79"
       style="fill:#1bb2cc;stroke-width:1.04391205"
       id="path630-5-5"
       inkscape:connector-curvature="0"
       sodipodi:nodetypes="ccccc" />
    <path
       d="m 154.77543,148.623 10.32464,5.74655 -0.5811,1.5355 c -4.60309,-1.95666 -8.30516,-4.55276 -10.24,-6.09524 z"
       class="st79"
       style="fill:#1bb2cc;stroke-width:1.04391205"
       id="path630-5-5-4"
       inkscape:connector-curvature="0"
       sodipodi:nodetypes="ccccc" />
  </g>
</svg>
