<?xml version="1.0" encoding="UTF-8" standalone="no"?>
<svg
   xmlns:dc="http://purl.org/dc/elements/1.1/"
   xmlns:cc="http://creativecommons.org/ns#"
   xmlns:rdf="http://www.w3.org/1999/02/22-rdf-syntax-ns#"
   xmlns:svg="http://www.w3.org/2000/svg"
   xmlns="http://www.w3.org/2000/svg"
   xmlns:sodipodi="http://sodipodi.sourceforge.net/DTD/sodipodi-0.dtd"
   xmlns:inkscape="http://www.inkscape.org/namespaces/inkscape"
   id="svg"
   version="1.1"
   width="371"
   height="233.82785"
   viewBox="0 0 371 233.82785"
   sodipodi:docname="logo.svg"
   inkscape:version="0.92.2 5c3e80d, 2017-08-06">
  <metadata
     id="metadata13">
    <rdf:RDF>
      <cc:Work
         rdf:about="">
        <dc:format>image/svg+xml</dc:format>
        <dc:type
           rdf:resource="http://purl.org/dc/dcmitype/StillImage" />
        <dc:title></dc:title>
      </cc:Work>
    </rdf:RDF>
  </metadata>
  <defs
     id="defs11" />
  <sodipodi:namedview
     pagecolor="#ffffff"
     bordercolor="#666666"
     borderopacity="1"
     objecttolerance="10"
     gridtolerance="10"
     guidetolerance="10"
     inkscape:pageopacity="0"
     inkscape:pageshadow="2"
     inkscape:window-width="640"
     inkscape:window-height="480"
     id="namedview9"
     showgrid="false"
     inkscape:zoom="0.81"
     inkscape:cx="195.32927"
     inkscape:cy="120.41393"
     inkscape:window-x="0"
     inkscape:window-y="0"
     inkscape:window-maximized="0"
     inkscape:current-layer="svg" />
  <g
     id="svgg"
     transform="translate(-27.160494,-7.0000025)">
    <path
       id="path0"
       d="m 267.096,21.483 c -2.989,0.492 -5.456,0.918 -5.482,0.948 -0.077,0.084 19.998,200.542 20.092,200.636 0.24,0.24 3.29,0.414 4.703,0.268 3.864,-0.399 4.181,-0.982 4.353,-8.001 0.337,-13.718 1.161,-29.36 2.099,-39.859 0.359,-4.02 0.7,-8.338 0.758,-9.595 0.663,-14.385 7.346,-30.027 16.153,-37.804 11.138,-9.836 26.863,-10.426 37.192,-1.396 11.872,10.379 18.641,37.934 16.886,68.737 -0.343,6.029 0.648,7.048 6.617,6.809 4.314,-0.174 4.945,-1.502 4.921,-10.357 -0.12,-43.768 -14.253,-76.667 -35.465,-82.56 -25.42,-7.062 -44.755,10.454 -54.109,49.016 -1.157,4.769 -1.061,4.501 -1.21,3.387 -0.07,-0.517 -2.751,-32.182 -5.959,-70.367 -3.208,-38.184 -5.896,-69.725 -5.974,-70.091 l -0.14,-0.665 -5.435,0.894 m -56.654,71.845 c -17.948,2.353 -28.235,24.889 -31.172,68.29 -0.332,4.907 -0.335,27.892 -0.004,30.95 2.66,24.576 12.927,34.02 32.716,30.095 23.738,-4.709 41.202,-34.698 39.933,-68.571 -1.563,-41.728 -16.766,-64.003 -41.473,-60.764 m 10.366,9.47 c 13.562,3.735 21.799,23.718 21.803,52.893 0.005,32.354 -11.804,52.392 -32.707,55.495 -11.848,1.76 -18.403,-1.788 -20.743,-11.23 -3.553,-14.331 -0.655,-54.037 5.382,-73.74 5.745,-18.751 14.586,-26.634 26.265,-23.418 M 93.29,105.469 c -9.587,1.734 -14.595,9.932 -18.785,30.749 -3.251,16.147 -3.608,16.593 -15.991,19.961 -9.611,2.614 -11.473,3.86 -12.089,8.088 l -0.225,1.541 0.936,0.851 c 3.838,3.489 10.385,2.447 20.094,-3.199 0.706,-0.411 1.335,-0.696 1.397,-0.634 0.062,0.062 0.599,4.07 1.194,8.907 1.535,12.473 2.132,15.989 3.748,22.058 4.199,15.773 10.944,25.57 19.644,28.531 12.335,4.199 26.328,-4.487 27.246,-16.913 l 0.08,-1.082 h -0.682 c -1.985,0 -3.337,0.651 -7.814,3.765 -5.475,3.808 -7.64,4.359 -12.796,3.26 -9.26,-1.975 -16.428,-15.126 -18.236,-33.459 -0.832,-8.441 -0.868,-20.657 -0.063,-21.463 0.043,-0.043 11.629,-4.062 25.746,-8.932 29.497,-10.176 27.883,-9.495 28.409,-11.983 1.288,-6.099 -3.093,-12.543 -13.491,-19.841 -11.51,-8.079 -21.059,-11.52 -28.322,-10.205 m 11.131,11.466 c 3.843,0.877 6.744,3.483 11.096,9.97 1.853,2.762 1.787,2.566 1.237,3.65 -3.298,6.51 -15.288,11.082 -30.924,11.793 l -2.692,0.123 0.118,-1.668 c 1.206,-16.982 9.645,-26.498 21.165,-23.868"
       inkscape:connector-curvature="0"
       style="fill:#808080;fill-rule:evenodd;stroke:none" />
    <path
       id="path1"
       d="m 96.943,105.121 c 0.284,0.043 0.75,0.043 1.034,0 0.285,-0.043 0.052,-0.079 -0.517,-0.079 -0.569,0 -0.802,0.036 -0.517,0.079 m 108.034,1.417 -0.744,0.8 0.8,-0.744 c 0.744,-0.692 0.886,-0.856 0.744,-0.856 -0.031,0 -0.391,0.36 -0.8,0.8 m 122.728,1.22 c 0.439,0.039 1.159,0.039 1.599,0 0.44,-0.04 0.08,-0.072 -0.8,-0.072 -0.879,0 -1.239,0.032 -0.799,0.072 m -21.508,9.504 -0.553,0.612 0.612,-0.553 c 0.57,-0.515 0.698,-0.67 0.552,-0.67 -0.032,0 -0.307,0.275 -0.611,0.611 m -2.35,2.352 -0.649,0.706 0.706,-0.649 c 0.388,-0.356 0.706,-0.674 0.706,-0.705 0,-0.144 -0.16,-0.008 -0.763,0.648 m -193.781,0.518 c 0.351,0.362 0.68,0.658 0.732,0.658 0.052,0 -0.193,-0.296 -0.544,-0.658 -0.351,-0.362 -0.681,-0.659 -0.732,-0.659 -0.052,0 0.193,0.297 0.544,0.659 m 238.1,7.808 c 0.614,0.621 1.159,1.129 1.211,1.129 0.051,0 -0.409,-0.508 -1.023,-1.129 -0.615,-0.621 -1.16,-1.129 -1.211,-1.129 -0.052,0 0.408,0.508 1.023,1.129 M 83.208,141.769 c 0.002,0.414 0.041,0.561 0.086,0.327 0.045,-0.234 0.043,-0.573 -0.004,-0.753 -0.047,-0.18 -0.084,0.012 -0.082,0.426 m 1.038,0.606 c 0.338,0.042 0.846,0.041 1.129,-0.002 0.283,-0.043 0.006,-0.077 -0.615,-0.076 -0.621,0.001 -0.852,0.036 -0.514,0.078 m 158.319,8.519 c 0,0.362 0.039,0.51 0.086,0.329 0.047,-0.181 0.047,-0.477 0,-0.659 -0.047,-0.181 -0.086,-0.032 -0.086,0.33 m 9.427,5.08 c 0,0.776 0.033,1.093 0.074,0.705 0.04,-0.388 0.04,-1.023 0,-1.411 -0.041,-0.388 -0.074,-0.07 -0.074,0.706 m -0.007,4.703 c 0,0.569 0.035,0.802 0.078,0.518 0.043,-0.285 0.043,-0.751 0,-1.035 -0.043,-0.285 -0.078,-0.052 -0.078,0.517 m 41.763,3.011 c 0,0.465 0.037,0.656 0.082,0.423 0.045,-0.233 0.045,-0.614 0,-0.847 -0.045,-0.232 -0.082,-0.042 -0.082,0.424 m -114.767,3.48 c 0.002,0.518 0.038,0.707 0.082,0.421 0.043,-0.286 0.042,-0.709 -0.003,-0.941 -0.045,-0.231 -0.08,0.003 -0.079,0.52 m -98.589,1.882 c 0.002,0.517 0.038,0.707 0.082,0.421 0.043,-0.286 0.042,-0.71 -0.003,-0.941 -0.045,-0.232 -0.08,0.002 -0.079,0.52 M 52.258,168.9 c 0.233,0.045 0.614,0.045 0.846,0 0.233,-0.044 0.043,-0.081 -0.423,-0.081 -0.466,0 -0.656,0.037 -0.423,0.081 m 135.56,2.408 c 0.002,0.414 0.041,0.561 0.086,0.327 0.045,-0.234 0.043,-0.573 -0.004,-0.753 -0.047,-0.18 -0.084,0.012 -0.082,0.426 m -0.177,5.832 c 0.001,0.621 0.036,0.852 0.078,0.514 0.042,-0.338 0.041,-0.846 -0.002,-1.129 -0.043,-0.282 -0.077,-0.006 -0.076,0.615 m -8.82,4.328 c 0.001,2.69 0.027,3.765 0.059,2.387 0.032,-1.377 0.032,-3.578 0,-4.892 -0.032,-1.313 -0.059,-0.186 -0.059,2.505 m 185.102,-0.941 c 0.002,0.414 0.041,0.561 0.086,0.327 0.045,-0.234 0.043,-0.573 -0.004,-0.753 -0.047,-0.18 -0.084,0.012 -0.082,0.426 m -176.274,4.139 c 0,0.931 0.031,1.336 0.071,0.899 0.039,-0.436 0.04,-1.198 0.001,-1.693 -0.039,-0.495 -0.071,-0.137 -0.072,0.794 m 187.767,5.55 c 0,0.776 0.033,1.094 0.074,0.706 0.04,-0.388 0.04,-1.023 0,-1.411 -0.041,-0.388 -0.074,-0.071 -0.074,0.705 m -187.598,0.283 c 0.002,0.414 0.041,0.561 0.086,0.327 0.045,-0.234 0.043,-0.573 -0.004,-0.753 -0.047,-0.18 -0.084,0.012 -0.082,0.426 m 103.857,1.317 c 0.002,0.414 0.041,0.561 0.086,0.327 0.045,-0.234 0.043,-0.573 -0.004,-0.753 -0.047,-0.18 -0.084,0.012 -0.082,0.426 m 72.248,0.752 c 0.002,0.414 0.041,0.561 0.086,0.327 0.045,-0.234 0.043,-0.572 -0.004,-0.752 -0.047,-0.18 -0.084,0.011 -0.082,0.425 m 11.473,2.352 c 0,0.362 0.039,0.51 0.086,0.329 0.048,-0.181 0.048,-0.477 0,-0.658 -0.047,-0.181 -0.086,-0.033 -0.086,0.329 m -83.913,1.317 c 0,0.362 0.039,0.51 0.086,0.329 0.047,-0.181 0.047,-0.477 0,-0.658 -0.047,-0.181 -0.086,-0.033 -0.086,0.329 m -0.188,4.327 c 0,0.363 0.039,0.511 0.086,0.33 0.047,-0.181 0.047,-0.478 0,-0.659 -0.047,-0.181 -0.086,-0.033 -0.086,0.329 m -62.8,0.988 -0.743,0.8 0.799,-0.744 c 0.744,-0.692 0.886,-0.855 0.744,-0.855 -0.031,0 -0.391,0.359 -0.8,0.799 m 62.612,3.152 c 0,0.362 0.038,0.51 0.086,0.329 0.047,-0.181 0.047,-0.477 0,-0.659 -0.048,-0.181 -0.086,-0.033 -0.086,0.33 m -0.181,4.515 c 0,0.466 0.037,0.656 0.082,0.424 0.045,-0.233 0.045,-0.614 0,-0.847 -0.045,-0.233 -0.082,-0.042 -0.082,0.423 m -188.527,2.576 c 0.181,0.047 0.477,0.047 0.658,0 0.181,-0.048 0.033,-0.086 -0.329,-0.086 -0.362,0 -0.51,0.038 -0.329,0.086 m 188.344,3.257 c 0,0.569 0.035,0.802 0.078,0.517 0.044,-0.284 0.044,-0.75 0,-1.035 -0.043,-0.284 -0.078,-0.051 -0.078,0.518 m -176.079,2.305 -0.553,0.611 0.611,-0.553 c 0.337,-0.304 0.612,-0.579 0.612,-0.611 0,-0.145 -0.155,-0.017 -0.67,0.553 m -16.12,6.106 c 0.234,0.045 0.573,0.044 0.753,-0.004 0.18,-0.047 -0.012,-0.083 -0.426,-0.081 -0.414,0.002 -0.561,0.04 -0.327,0.085 m 103.761,-0.003 c 0.181,0.047 0.477,0.047 0.658,0 0.181,-0.047 0.033,-0.086 -0.329,-0.086 -0.362,0 -0.51,0.039 -0.329,0.086 m 3.013,0.005 c 0.286,0.043 0.709,0.042 0.94,-0.002 0.232,-0.045 -0.002,-0.08 -0.52,-0.079 -0.517,0.001 -0.706,0.038 -0.42,0.081"
       inkscape:connector-curvature="0"
       style="fill:#adadad;fill-rule:evenodd;stroke:none" />
    <path
       id="path2"
       d="m 213.594,93.079 c 0.284,0.043 0.75,0.043 1.034,0 0.285,-0.043 0.052,-0.078 -0.517,-0.078 -0.569,0 -0.802,0.035 -0.517,0.078 m 21.589,8.238 c 0.351,0.362 0.681,0.659 0.733,0.659 0.052,0 -0.193,-0.297 -0.544,-0.659 -0.351,-0.362 -0.681,-0.658 -0.733,-0.658 -0.051,0 0.193,0.296 0.544,0.658 m -6.585,6.021 c 0.351,0.362 0.681,0.658 0.733,0.658 0.051,0 -0.194,-0.296 -0.545,-0.658 -0.351,-0.362 -0.68,-0.659 -0.732,-0.659 -0.052,0 0.193,0.297 0.544,0.659 m 78.916,22.907 -0.553,0.611 0.612,-0.553 c 0.57,-0.515 0.698,-0.67 0.553,-0.67 -0.033,0 -0.308,0.275 -0.612,0.612 m -55.538,23.753 c 0.002,0.414 0.041,0.561 0.086,0.327 0.045,-0.234 0.043,-0.573 -0.004,-0.752 -0.047,-0.18 -0.084,0.011 -0.082,0.425 m -9.401,5.268 c 0.001,0.518 0.038,0.707 0.081,0.421 0.043,-0.286 0.042,-0.709 -0.002,-0.941 -0.045,-0.231 -0.08,0.003 -0.079,0.52 m -162.156,4.986 c 0,2.225 0.027,3.135 0.06,2.023 0.033,-1.113 0.033,-2.933 0,-4.045 -0.033,-1.113 -0.06,-0.203 -0.06,2.022 m 98.556,1.411 c 0.002,0.414 0.041,0.561 0.086,0.327 0.045,-0.234 0.043,-0.572 -0.004,-0.752 -0.047,-0.18 -0.084,0.011 -0.082,0.425 m 8.839,6.868 c 0,0.362 0.039,0.51 0.086,0.329 0.047,-0.181 0.047,-0.478 0,-0.659 -0.047,-0.181 -0.086,-0.033 -0.086,0.33 m -9.007,2.445 c 0,0.984 0.032,1.386 0.071,0.894 0.038,-0.491 0.038,-1.296 0,-1.787 -0.039,-0.492 -0.071,-0.09 -0.071,0.893 m 8.849,5.645 c 0,1.397 0.03,1.968 0.066,1.27 0.036,-0.699 0.036,-1.842 0,-2.54 -0.036,-0.699 -0.066,-0.127 -0.066,1.27 m 176.271,1.317 c 0,0.466 0.037,0.656 0.082,0.423 0.044,-0.233 0.044,-0.614 0,-0.846 -0.045,-0.233 -0.082,-0.043 -0.082,0.423 m 11.473,6.303 c 0.002,0.414 0.041,0.561 0.086,0.327 0.045,-0.234 0.043,-0.573 -0.004,-0.753 -0.047,-0.18 -0.084,0.012 -0.082,0.426 m -187.586,1.035 c 0,0.362 0.039,0.51 0.086,0.329 0.047,-0.181 0.047,-0.478 0,-0.659 -0.047,-0.181 -0.086,-0.033 -0.086,0.33 m 176.116,1.787 c 10e-4,0.517 0.038,0.707 0.081,0.421 0.043,-0.286 0.042,-0.71 -0.003,-0.941 -0.044,-0.231 -0.08,0.003 -0.078,0.52 m 5.637,11.33 c 0.285,0.043 0.75,0.043 1.035,0 0.285,-0.044 0.052,-0.079 -0.517,-0.079 -0.569,0 -0.802,0.035 -0.518,0.079 m -78.648,8.143 c 0,0.362 0.038,0.511 0.086,0.329 0.047,-0.181 0.047,-0.477 0,-0.658 -0.048,-0.181 -0.086,-0.033 -0.086,0.329 m -0.176,6.397 c 0,0.569 0.035,0.802 0.078,0.518 0.044,-0.285 0.044,-0.751 0,-1.035 -0.043,-0.285 -0.078,-0.052 -0.078,0.517"
       inkscape:connector-curvature="0"
       style="fill:#c6c6c6;fill-rule:evenodd;stroke:none" />
    <path
       id="path3"
       d="M 0,120.414 V 240.828 H 200 400 V 120.414 0 H 200 0 V 120.414 M 272.813,20.698 c 0,0.104 2.667,31.787 5.926,70.407 3.26,38.62 5.932,70.432 5.939,70.695 0.006,0.262 0.504,-1.471 1.105,-3.851 6.4,-25.335 15.744,-40.146 29.862,-47.333 10.272,-5.23 25.77,-3.387 34.966,4.158 14.454,11.858 22.855,35.624 24.739,69.986 0.828,15.097 0.019,17.615 -5.642,17.577 -5.357,-0.036 -6.395,-1.118 -6.009,-6.261 1.173,-15.612 -1.054,-36.855 -5.216,-49.774 -6.506,-20.192 -19.239,-28.958 -36.188,-24.914 -15.001,3.58 -27.45,22.755 -28.5,43.899 -0.061,1.242 -0.402,5.517 -0.756,9.501 -1.021,11.464 -1.845,27.016 -2.108,39.778 l -0.116,5.628 -0.582,1.145 c -0.926,1.823 -1.622,2.086 -5.507,2.082 -1.675,-0.002 -3.081,-0.044 -3.125,-0.094 -0.082,-0.094 -20.084,-199.979 -20.079,-200.66 0.002,-0.353 0.393,-0.448 5.129,-1.249 5.533,-0.937 6.162,-1.01 6.162,-0.72 M 217.31,93.14 c 20.687,1.856 32.365,21.341 34.613,57.754 2.226,36.063 -15.522,67.394 -40.822,72.066 -17.454,3.223 -27.727,-4.855 -31.13,-24.48 -1.616,-9.318 -1.657,-30.294 -0.091,-45.893 4.274,-42.542 16.121,-61.359 37.43,-59.447 m -3.105,9.153 c -7.947,0.692 -14.342,8.154 -18.996,22.166 -6.376,19.199 -9.621,61.062 -5.87,75.729 2.416,9.443 9.22,12.818 21.607,10.717 22.467,-3.812 34.429,-29.499 31.098,-66.785 -2.042,-22.862 -9.651,-37.851 -20.863,-41.1 -1.265,-0.367 -5.692,-0.961 -6.129,-0.823 -0.052,0.017 -0.433,0.059 -0.847,0.096 m -114.04,2.976 c 11.132,1.942 29.902,14.601 34.171,23.047 1.468,2.904 1.558,6.924 0.197,8.802 -0.868,1.198 -1.797,1.548 -28.221,10.647 -24.753,8.524 -25.3,8.723 -25.479,9.259 -0.282,0.844 -0.258,15.105 0.031,18.235 1.975,21.44 8.839,34.325 19.255,36.141 4.215,0.735 6.527,0.213 10.28,-2.325 5.285,-3.575 5.958,-3.999 6.907,-4.354 0.543,-0.203 1.52,-0.429 2.171,-0.503 l 1.185,-0.134 -0.117,1.58 c -1.198,16.174 -23.126,23.752 -34.918,12.067 -9.216,-9.132 -13.531,-22.89 -16.874,-53.799 l -0.126,-1.166 -0.964,0.569 c -9.923,5.856 -16.426,6.941 -20.565,3.431 l -0.974,-0.826 0.096,-1.079 c 0.425,-4.744 2.399,-6.12 12.858,-8.958 11.733,-3.183 12.11,-3.676 15.408,-20.155 3.346,-16.723 6.989,-24.369 13.604,-28.556 2.762,-1.747 8.156,-2.606 12.075,-1.923 m -2.873,11.672 c -7.584,1.73 -13.943,12.902 -13.943,24.497 v 0.801 l 1.458,-0.003 c 14.154,-0.027 28.041,-4.982 31.628,-11.286 0.793,-1.394 0.821,-1.29 -1.125,-4.153 -5.435,-7.995 -8.132,-9.909 -14.181,-10.064 -1.85,-0.047 -2.992,0.015 -3.837,0.208 m 61.987,85.134 c 4.707,0.818 6.424,2.675 6.617,7.157 0.28,6.527 -4.278,13.108 -9.885,14.268 -5.932,1.228 -8.69,-1.976 -8.727,-10.139 -0.038,-8.499 4.337,-12.615 11.995,-11.286"
       inkscape:connector-curvature="0"
       style="fill:#ffffff;fill-rule:evenodd;stroke:none" />
    <path
       id="path4"
       d="m 242.565,157.855 c 0,0.362 0.039,0.51 0.086,0.329 0.047,-0.181 0.047,-0.477 0,-0.658 -0.047,-0.181 -0.086,-0.033 -0.086,0.329 m -63.767,14.393 c 0.001,0.621 0.036,0.853 0.078,0.514 0.042,-0.338 0.041,-0.846 -0.002,-1.128 -0.043,-0.283 -0.077,-0.007 -0.076,0.614 m 185.136,11.477 c 10e-4,0.621 0.036,0.853 0.078,0.514 0.042,-0.338 0.041,-0.846 -0.002,-1.129 -0.043,-0.282 -0.077,-0.006 -0.076,0.615 m -0.004,5.645 c 10e-4,0.517 0.038,0.706 0.081,0.42 0.043,-0.286 0.042,-0.709 -0.003,-0.94 -0.044,-0.232 -0.08,0.002 -0.078,0.52 m -210.214,12.813 c -4.22,1.129 -6.46,5.022 -6.432,11.178 0.037,8.163 2.795,11.367 8.727,10.139 9.392,-1.944 13.845,-17.876 5.795,-20.73 -2.596,-0.921 -5.936,-1.163 -8.09,-0.587 m 137.031,16.82 c 0,0.672 0.034,0.948 0.076,0.611 0.042,-0.336 0.042,-0.886 0,-1.223 -0.042,-0.336 -0.076,-0.061 -0.076,0.612"
       inkscape:connector-curvature="0"
       style="fill:#fccfd5;fill-rule:evenodd;stroke:none" />
  </g>
</svg>
