<?xml version="1.0" encoding="UTF-8" standalone="no"?>
<svg
   xmlns:dc="http://purl.org/dc/elements/1.1/"
   xmlns:cc="http://creativecommons.org/ns#"
   xmlns:rdf="http://www.w3.org/1999/02/22-rdf-syntax-ns#"
   xmlns:svg="http://www.w3.org/2000/svg"
   xmlns="http://www.w3.org/2000/svg"
   xmlns:sodipodi="http://sodipodi.sourceforge.net/DTD/sodipodi-0.dtd"
   xmlns:inkscape="http://www.inkscape.org/namespaces/inkscape"
   id="master-artboard"
   viewBox="0 0 1400.001 904.29498"
   version="1.1"
   x="0px"
   y="0px"
   width="1400.001"
   height="904.29498"
   enable-background="new 0 0 1400 980"
   sodipodi:docname="park.svg"
   inkscape:version="0.92.2 (5c3e80d, 2017-08-06)">
  <metadata
     id="metadata197">
    <rdf:RDF>
      <cc:Work
         rdf:about="">
        <dc:format>image/svg+xml</dc:format>
        <dc:type
           rdf:resource="http://purl.org/dc/dcmitype/StillImage" />
        <dc:title></dc:title>
      </cc:Work>
    </rdf:RDF>
  </metadata>
  <defs
     id="defs195" />
  <sodipodi:namedview
     pagecolor="#ffffff"
     bordercolor="#666666"
     borderopacity="1"
     objecttolerance="10"
     gridtolerance="10"
     guidetolerance="10"
     inkscape:pageopacity="0"
     inkscape:pageshadow="2"
     inkscape:window-width="1920"
     inkscape:window-height="1017"
     id="namedview193"
     showgrid="false"
     inkscape:zoom="0.30304576"
     inkscape:cx="56.462592"
     inkscape:cy="483.23114"
     inkscape:window-x="-8"
     inkscape:window-y="-8"
     inkscape:window-maximized="1"
     inkscape:current-layer="master-artboard"
     fit-margin-top="0"
     fit-margin-left="0"
     fit-margin-right="0"
     fit-margin-bottom="0" />
  <g
     id="g10"
     transform="translate(0,-9.705)">
    <path
       d="M 700.443,200.705 C 408.504,200.705 151.245,328.273 0,522.078 V 834 H 44.106 C 94.809,561.744 369.352,353.721 700.443,353.721 c 331.092,0 605.635,208.023 656.337,480.279 H 1400 V 520.936 C 1248.637,327.771 991.81,200.705 700.443,200.705 Z"
       id="path2"
       inkscape:connector-curvature="0"
       style="fill:#fcf3d0" />
    <path
       d="M 698.567,9.705 C 432.034,9.705 188,92.963 0,230.865 V 520.39 C 153,330.12 408.946,205.625 698.565,205.625 c 291.436,0 548.563,126.061 701.435,318.351 l 10e-4,-290.403 C 1211.837,94.054 966.842,9.705 698.567,9.705 Z"
       id="path4"
       inkscape:connector-curvature="0"
       style="fill:#f3f6ff" />
    <path
       d="M 700.443,353.721 C 369.352,353.721 94.809,561.744 44.106,834 h 198.226 c 48.019,-179.298 234.895,-313 458.111,-313 223.217,0 410.093,133.702 458.111,313 h 198.227 C 1306.078,561.744 1031.535,353.721 700.443,353.721 Z"
       id="path6"
       inkscape:connector-curvature="0"
       style="fill:#ffeb97" />
    <path
       d="M 700.443,521 C 477.227,521 290.351,654.702 242.332,834 h 916.222 C 1110.536,654.702 923.66,521 700.443,521 Z"
       id="path8"
       inkscape:connector-curvature="0"
       style="fill:#ffe164" />
  </g>
  <path
     d="m 1304.34,758.85 c -3.769,-21.925 -21.921,-38.555 -43.764,-38.555 -4.437,0 -8.718,0.695 -12.762,1.973 -7.476,-14.854 -22.27,-24.973 -39.306,-24.973 -16.46,0 -30.823,9.45 -38.52,23.486 -7.454,-5.952 -16.735,-9.486 -26.801,-9.486 -23.774,0 -43.19,19.696 -44.43,44.482 -4.479,-1.602 -9.273,-2.482 -14.266,-2.482 -24.572,0 -44.493,21.043 -44.493,47 0,25.957 19.921,47 44.493,47 17.394,0 32.444,-10.547 39.761,-25.91 7.317,15.363 22.369,25.91 39.761,25.91 12.621,0 24.006,-5.561 32.105,-14.478 8.083,11.796 21.217,19.478 36.055,19.478 12.913,0 24.533,-5.814 32.661,-15.094 8.129,9.279 19.75,15.094 32.662,15.094 24.572,0 44.493,-21.043 44.493,-47 0,-23.499 -16.325,-42.969 -37.649,-46.445 z"
     id="path12"
     inkscape:connector-curvature="0"
     style="fill:#c5ea75" />
  <g
     id="g18"
     transform="translate(0,-9.705)">
    <path
       d="m 1224,612 h 48 v 220 h -48 z"
       id="path14"
       inkscape:connector-curvature="0"
       style="fill:#89522e" />
    <path
       d="m 1325.657,646 -24.428,-95 -21.6,-84 -31.629,-123 -31.629,123 -21.6,84 -24.428,95 -21.343,83 h 198 z"
       id="path16"
       inkscape:connector-curvature="0"
       style="fill:#6c992b" />
  </g>
  <g
     id="g24"
     transform="translate(0,-9.705)">
    <path
       d="m 1113,666 h 36 v 166 h -36 z"
       id="path20"
       inkscape:connector-curvature="0"
       style="fill:#89522e" />
    <path
       d="M 1187.257,688.87201 1169.561,620.052 1153.913,559.19897 1131,470.095 1108.087,559.19897 1092.439,620.052 1074.743,688.87201 1059.281,749 h 143.438 z"
       id="path22"
       inkscape:connector-curvature="0"
       style="fill:#75b22d" />
  </g>
  <g
     id="g30"
     transform="translate(0,-9.705)">
    <path
       d="m 244,521 h 48 v 220 h -48 z"
       id="path26"
       inkscape:connector-curvature="0"
       style="fill:#89522e" />
    <path
       d="m 442.614,401.731 c 0,-26.682 -16.841,-49.394 -40.389,-57.935 4.128,-8.295 6.466,-17.653 6.466,-27.565 0,-33.999 -27.337,-61.561 -61.06,-61.561 -12.973,0 -24.99,4.09 -34.88,11.044 -10.444,-18.829 -30.401,-31.565 -53.319,-31.565 -27.408,0 -50.6,18.208 -58.324,43.278 -5.193,-1.448 -10.657,-2.237 -16.306,-2.237 -33.724,0 -61.061,27.562 -61.061,61.561 0,9.446 2.116,18.392 5.888,26.391 -15.855,11.12 -26.242,29.611 -26.242,50.56 0,24.292 13.962,45.293 34.235,55.308 -0.207,2.056 -0.312,4.141 -0.312,6.252 0,33.999 27.338,61.56 61.06,61.56 2.375,0 4.714,-0.15 7.019,-0.417 10.227,19.563 30.584,32.909 54.043,32.909 26.509,0 49.066,-17.039 57.505,-40.843 9.02,5.3 19.5,8.351 30.694,8.351 33.723,0 61.06,-27.562 61.06,-61.56 0,-5.983 -0.862,-11.761 -2.442,-17.231 21.416,-9.563 36.365,-31.166 36.365,-56.3 z"
       id="path28"
       inkscape:connector-curvature="0"
       style="fill:#75b22d" />
  </g>
  <path
     d="m 264.005,718.795 c 0,-19.714 -11.617,-36.494 -27.86,-42.805 2.848,-6.129 4.46,-13.042 4.46,-20.365 0,-25.119 -18.857,-45.482 -42.119,-45.482 -8.949,0 -17.238,3.021 -24.061,8.16 -7.204,-13.911 -20.971,-23.322 -36.779,-23.322 -18.906,0 -34.904,13.453 -40.232,31.976 -3.582,-1.069 -7.352,-1.653 -11.248,-1.653 -23.263,0 -42.12,20.363 -42.12,45.482 0,6.979 1.46,13.589 4.062,19.498 -10.938,8.217 -18.102,21.879 -18.102,37.355 0,17.948 9.631,33.464 23.615,40.863 -0.143,1.519 -0.215,3.06 -0.215,4.619 0,25.119 18.857,45.482 42.119,45.482 1.639,0 3.252,-0.111 4.842,-0.309 7.055,14.454 21.097,24.314 37.279,24.314 18.286,0 33.846,-12.589 39.667,-30.176 6.222,3.916 13.451,6.17 21.173,6.17 23.262,0 42.119,-20.363 42.119,-45.482 0,-4.42 -0.595,-8.689 -1.685,-12.73 14.773,-7.065 25.085,-23.026 25.085,-41.595 z"
     id="path32"
     inkscape:connector-curvature="0"
     style="fill:#6c992b" />
  <path
     d="m 375.435,716.85 c -3.698,-21.925 -21.515,-38.555 -42.952,-38.555 -4.354,0 -8.556,0.695 -12.525,1.973 -7.337,-14.855 -21.855,-24.973 -38.576,-24.973 -16.155,0 -30.251,9.45 -37.805,23.486 -7.316,-5.952 -16.425,-9.486 -26.304,-9.486 -23.333,0 -42.389,19.696 -43.604,44.482 -4.396,-1.602 -9.102,-2.482 -14,-2.482 -24.118,0 -43.669,21.043 -43.669,47 0,25.957 19.551,47 43.668,47 17.069,0 31.84,-10.547 39.022,-25.91 7.182,15.363 21.954,25.91 39.023,25.91 12.387,0 23.561,-5.561 31.508,-14.478 7.935,11.796 20.825,19.478 35.389,19.478 12.672,0 24.078,-5.814 32.055,-15.094 7.977,9.279 19.383,15.094 32.055,15.094 24.118,0 43.668,-21.043 43.668,-47 -10e-4,-23.499 -16.024,-42.969 -36.953,-46.445 z"
     id="path34"
     inkscape:connector-curvature="0"
     style="fill:#75b22d" />
  <g
     id="g44"
     transform="translate(0,-9.705)">
    <path
       d="M 1322.683,785 H 85.317 c -23.943,0 -44.815,13 -55.888,33 H 1378.57 c -11.073,-20 -31.944,-33 -55.887,-33 z"
       id="path36"
       inkscape:connector-curvature="0"
       style="fill:#8dc440" />
    <path
       d="m 85.317,914 h 1237.365 c 23.53,0 44.101,-13 55.313,-31 H 30.005 c 11.212,18 31.782,31 55.312,31 z"
       id="path38"
       inkscape:connector-curvature="0"
       style="fill:#724126" />
    <path
       d="M 1387,850 H 21 v -0.317 C 21,861.673 24.291,873 30.005,883 h 1347.99 c 5.714,-10 9.005,-21.327 9.005,-33.317 V 850 Z"
       id="path40"
       inkscape:connector-curvature="0"
       style="fill:#89522e" />
    <path
       d="M 1387,849.317 C 1387,837.739 1383.925,827 1378.57,818 H 29.43 C 24.076,827 21,837.739 21,849.317 V 850 h 1366 z"
       id="path42"
       inkscape:connector-curvature="0"
       style="fill:#75b22d" />
  </g>
  <g
     id="g88"
     transform="translate(0,-9.705)">
    <g
       id="g48">
      <path
         d="m 718,735.003 c 0,3.485 -3.824,6.31 -8,6.31 v 0 c -4.176,0 -8,-2.824 -8,-6.31 v -64.899 c 0,-3.485 3.824,-6.309 8,-6.309 v 0 c 4.176,0 8,2.823 8,6.309 z"
         id="path46"
         inkscape:connector-curvature="0"
         style="fill:#89522e" />
    </g>
    <g
       id="g52">
      <path
         d="m 673,731.396 c 0,3.486 -3.324,6.311 -7.5,6.311 v 0 c -4.176,0 -7.5,-2.824 -7.5,-6.311 v -64.897 c 0,-3.486 3.324,-6.31 7.5,-6.31 v 0 c 4.176,0 7.5,2.823 7.5,6.31 z"
         id="path50"
         inkscape:connector-curvature="0"
         style="fill:#89522e" />
    </g>
    <g
       id="g56">
      <path
         d="m 626,733.2 c 0,3.485 -3.324,6.309 -7.5,6.309 v 0 c -4.176,0 -7.5,-2.823 -7.5,-6.309 v -77.518 c 0,-3.486 3.324,-6.31 7.5,-6.31 v 0 c 4.176,0 7.5,2.823 7.5,6.31 z"
         id="path54"
         inkscape:connector-curvature="0"
         style="fill:#89522e" />
    </g>
    <g
       id="g60">
      <path
         d="m 582,733.2 c 0,3.485 -3.824,6.309 -8,6.309 v 0 c -4.176,0 -8,-2.823 -8,-6.309 v -77.518 c 0,-3.486 3.824,-6.31 8,-6.31 v 0 c 4.176,0 8,2.823 8,6.31 z"
         id="path58"
         inkscape:connector-curvature="0"
         style="fill:#89522e" />
    </g>
    <g
       id="g64">
      <path
         d="m 537,733.2 c 0,3.485 -3.324,6.309 -7.5,6.309 v 0 c -4.176,0 -7.5,-2.823 -7.5,-6.309 v -77.518 c 0,-3.486 3.324,-6.31 7.5,-6.31 v 0 c 4.176,0 7.5,2.823 7.5,6.31 z"
         id="path62"
         inkscape:connector-curvature="0"
         style="fill:#89522e" />
    </g>
    <g
       id="g68">
      <path
         d="m 491,731.396 c 0,3.486 -3.824,6.311 -8,6.311 v 0 c -4.176,0 -8,-2.824 -8,-6.311 v -64.897 c 0,-3.486 3.824,-6.31 8,-6.31 v 0 c 4.176,0 8,2.823 8,6.31 z"
         id="path66"
         inkscape:connector-curvature="0"
         style="fill:#89522e" />
    </g>
    <g
       id="g72">
      <path
         d="m 446,731.396 c 0,3.486 -3.824,6.311 -8,6.311 v 0 c -4.176,0 -8,-2.824 -8,-6.311 v -64.897 c 0,-3.486 3.824,-6.31 8,-6.31 v 0 c 4.176,0 8,2.823 8,6.31 z"
         id="path70"
         inkscape:connector-curvature="0"
         style="fill:#89522e" />
    </g>
    <g
       id="g76">
      <path
         d="m 408,742 c 0,0 211.272,0 316.832,0 2.08,0 4.168,0 6.168,0 10,0 10,-13 0,-13 -105,0 -211.045,0 -316.605,0 -2.08,0 -4.395,0 -6.395,0 -10,0 -10,13 0,13 0,0 -10,0 0,0 z"
         id="path74"
         inkscape:connector-curvature="0"
         style="fill:#d3884a" />
    </g>
    <g
       id="g80">
      <path
         d="m 720.453,663.119 c -47.736,-13.888 -100.56,-16.338 -150.84,-16.451 -50.172,-0.112 -103.234,2.603 -150.84,16.451 -9.386,2.73 -5.339,14.926 4.145,12.168 46.56,-13.544 97.647,-15.89 146.695,-15.999 48.949,-0.109 100.26,2.491 146.696,15.999 9.484,2.758 13.532,-9.437 4.144,-12.168 z"
         id="path78"
         inkscape:connector-curvature="0"
         style="fill:#d3884a" />
    </g>
    <path
       d="m 430,742 h 288 v 14 H 430 Z"
       id="path82"
       inkscape:connector-curvature="0"
       style="fill:#7a472b" />
    <path
       d="m 446,792.69 c 0,3.485 -3.695,6.31 -8,6.31 v 0 c -4.305,0 -8,-2.824 -8,-6.31 v -50.477 c 0,-3.485 3.695,-6.31 8,-6.31 v 0 c 4.305,0 8,2.824 8,6.31 z"
       id="path84"
       inkscape:connector-curvature="0"
       style="fill:#89522e" />
    <path
       d="m 718,792.69 c 0,3.485 -3.695,6.31 -8,6.31 v 0 c -4.305,0 -8,-2.824 -8,-6.31 v -50.477 c 0,-3.485 3.695,-6.31 8,-6.31 v 0 c 4.305,0 8,2.824 8,6.31 z"
       id="path86"
       inkscape:connector-curvature="0"
       style="fill:#89522e" />
  </g>
  <g
     id="g110"
     transform="translate(0,-9.705)">
    <path
       d="m 763,726 h 33 v 46 h -33 z"
       id="path90"
       inkscape:connector-curvature="0"
       style="fill:#505e66" />
    <g
       id="g94">
      <path
         d="m 774,623 c 0,0 0,-149.964 0,-186.697 0,-13.195 1.498,-27.891 -0.812,-40.98 -3.3,-18.688 -25.434,-25.175 -41.354,-19.661 -15.381,5.325 -16.702,20.338 -16.702,34.338 0,7 -11.119,7 -11.119,0 0,-14 0.845,-25.411 10.561,-36.006 10.859,-11.843 29.729,-13.936 44.323,-9.02 14.925,5.027 26.103,19.458 26.103,35.288 0,4.472 0,8.943 0,13.416 0,43.074 0,162.15 0,205.226 0,1.198 0,2.097 0,4.097 C 785,629 774,629 774,623 c 0,0 0,6 0,0 z"
         id="path92"
         inkscape:connector-curvature="0"
         style="fill:#505e66" />
    </g>
    <path
       d="m 763,721 h 33 v 13 h -33 z"
       id="path96"
       inkscape:connector-curvature="0"
       style="fill:#73909d" />
    <path
       d="m 807,786 v -1.146 C 807,771.694 796.004,769 782.844,769 h -7.942 C 761.742,769 751,771.693 751,784.854 V 786"
       id="path98"
       inkscape:connector-curvature="0"
       style="fill:#73909d" />
    <path
       d="m 679.634,448.336 c 0,17.256 13.375,31.242 29.873,31.242 16.5,0 29.875,-13.986 29.875,-31.242"
       id="path100"
       inkscape:connector-curvature="0"
       style="fill:#ffce00" />
    <path
       d="m 770,479 h 18 v 242 h -18 z"
       id="path102"
       inkscape:connector-curvature="0"
       style="fill:#505e66" />
    <path
       d="m 767,471 h 24 v 14 h -24 z"
       id="path104"
       inkscape:connector-curvature="0"
       style="fill:#73909d" />
    <path
       d="m 750.015,457.339 c 0,-23.396 -18.137,-42.361 -40.508,-42.361 -22.371,0 -40.507,18.965 -40.507,42.361"
       id="path106"
       inkscape:connector-curvature="0"
       style="fill:#505e66" />
    <path
       d="m 724,418 v -1.235 C 724,409.637 718.258,404 711.13,404 h -4.304 C 699.698,404 694,409.637 694,416.765 V 418"
       id="path108"
       inkscape:connector-curvature="0"
       style="fill:#73909d" />
  </g>
  <path
     d="m 639.145,244.295 h -4.746 c -1.486,-23 -20.138,-40.41 -42.99,-40.41 -14.882,0 -28.003,7.461 -35.756,18.926 -8.84,-18.708 -27.875,-31.691 -49.939,-31.691 -30.493,0 -55.213,24.701 -55.213,55.194 0,24.921 16.513,45.86 39.191,52.729 3.502,1.518 7.361,2.253 11.421,2.253 h 138.033 c 15.881,0 28.757,-12.618 28.757,-28.5 0,-15.882 -12.877,-28.501 -28.758,-28.501 z"
     id="path112"
     inkscape:connector-curvature="0"
     style="fill:#ffffff" />
  <path
     d="m 1171.338,215.295 h -5.229 c -1.635,-25 -22.171,-44.334 -47.333,-44.334 -18.139,0 -33.892,10.173 -41.891,25.12 -5.665,-6.092 -13.728,-9.92 -22.701,-9.92 -16.497,0 -29.946,12.134 -30.934,29.134 h -3.896 c -17.486,0 -31.662,14.014 -31.662,31.5 0,17.486 14.176,31.5 31.662,31.5 h 151.982 c 17.485,0 31.662,-14.014 31.662,-31.5 0,-17.486 -14.175,-31.5 -31.66,-31.5 z"
     id="path114"
     inkscape:connector-curvature="0"
     style="fill:#ffffff" />
  <path
     d="m 1362.333,817.96199 -22.207,-26.16699 -24.459,16.5 -22.667,-16.5 -29.333,16.5 -27.4869,-21.00403 -23.8471,24.67102 -21.337,-20.16699 -13.996,16.5"
     id="path116"
     inkscape:connector-curvature="0"
     style="fill:#75b22d" />
  <g
     id="g124"
     transform="translate(0,-9.705)">
    <path
       d="m 1024,744 h 6 v 51 h -6 z"
       id="path118"
       inkscape:connector-curvature="0"
       style="fill:#75b22d" />
    <path
       d="m 1058.757,732.012 c -1.188,-3.969 -5.368,-6.222 -9.337,-5.033 l -6.885,2.063 3.607,-6.691 c 1.965,-3.646 0.603,-8.195 -3.043,-10.16 -3.647,-1.966 -8.196,-0.604 -10.161,3.043 l -3.41,6.324 -2.18,-7.279 c -1.188,-3.969 -5.368,-6.222 -9.337,-5.033 -3.969,1.189 -6.222,5.367 -5.033,9.336 l 2.062,6.883 -6.69,-3.606 c -3.646,-1.966 -8.195,-0.603 -10.161,3.044 -1.966,3.646 -0.604,8.194 3.043,10.16 l 7.571,4.082 -8.238,2.467 c -3.969,1.188 -6.222,5.368 -5.033,9.337 1.188,3.968 5.367,6.222 9.336,5.033 l 7.28,-2.181 -3.41,6.326 c -1.966,3.645 -0.604,8.193 3.042,10.16 3.646,1.966 8.195,0.604 10.162,-3.043 l 3.605,-6.691 2.063,6.885 c 1.188,3.969 5.368,6.223 9.337,5.034 3.968,-1.188 6.222,-5.368 5.033,-9.337 l -2.181,-7.281 6.325,3.41 c 3.646,1.967 8.194,0.604 10.161,-3.043 1.965,-3.646 0.603,-8.195 -3.043,-10.161 l -5.444,-2.935 5.926,-1.775 c 3.967,-1.19 6.221,-5.37 5.033,-9.338 z"
       id="path120"
       inkscape:connector-curvature="0"
       style="fill:#ff4a4a" />
    <path
       d="m 1039.333,741.328 a 12,12 0 0 1 -12,12 12,12 0 0 1 -12,-12 12,12 0 0 1 12,-12 12,12 0 0 1 12,12 z"
       id="path122"
       inkscape:connector-curvature="0"
       style="fill:#ffce00" />
  </g>
  <g
     id="g136"
     transform="translate(0,-9.705)">
    <path
       d="m 1185,742 h 6 v 51 h -6 z"
       id="path126"
       inkscape:connector-curvature="0"
       style="fill:#75b22d" />
    <path
       d="m 1218.91,730.284 c -1.224,-4.532 -5.235,-7.563 -9.688,-7.753 0.952,-4.354 -0.957,-9.006 -5.027,-11.344 -4.07,-2.34 -9.051,-1.646 -12.334,1.369 -2.406,-3.753 -7.045,-5.69 -11.575,-4.467 -4.532,1.225 -7.563,5.236 -7.753,9.688 -4.355,-0.952 -9.006,0.957 -11.345,5.027 -2.338,4.069 -1.646,9.05 1.371,12.333 -3.753,2.406 -5.692,7.045 -4.468,11.576 1.224,4.531 5.234,7.563 9.689,7.752 -0.953,4.354 0.957,9.006 5.026,11.344 4.071,2.34 9.05,1.646 12.333,-1.367 2.405,3.752 7.045,5.689 11.576,4.466 4.533,-1.223 7.565,-5.233 7.753,-9.689 4.354,0.952 9.006,-0.957 11.345,-5.027 2.339,-4.069 1.646,-9.049 -1.37,-12.331 3.755,-2.406 5.693,-7.045 4.467,-11.577 z"
       id="path128"
       inkscape:connector-curvature="0"
       style="fill:#ff8533" />
    <path
       stroke-miterlimit="10"
       d="m 1211.313,732.337 c -0.918,-3.4 -3.928,-5.674 -7.268,-5.816 0.714,-3.267 -0.718,-6.756 -3.771,-8.51 -3.054,-1.755 -6.79,-1.235 -9.253,1.027 -1.805,-2.815 -5.284,-4.269 -8.683,-3.351 -3.4,0.918 -5.674,3.928 -5.816,7.268 -3.268,-0.714 -6.756,0.718 -8.511,3.771 -1.754,3.053 -1.234,6.789 1.028,9.252 -2.814,1.805 -4.27,5.284 -3.352,8.684 0.919,3.399 3.928,5.674 7.27,5.815 -0.715,3.267 0.718,6.756 3.771,8.51 3.054,1.755 6.789,1.235 9.252,-1.025 1.804,2.814 5.284,4.268 8.684,3.35 3.401,-0.917 5.676,-3.926 5.816,-7.269 3.267,0.715 6.756,-0.718 8.511,-3.771 1.754,-3.053 1.234,-6.788 -1.028,-9.25 2.815,-1.805 4.269,-5.286 3.35,-8.685 z"
       id="path130"
       inkscape:connector-curvature="0"
       style="fill:none;stroke:#e25f05;stroke-width:2;stroke-miterlimit:10" />
    <path
       d="m 1200.333,739.328 a 12,12 0 0 1 -12,12 12,12 0 0 1 -12,-12 12,12 0 0 1 12,-12 12,12 0 0 1 12,12 z"
       id="path132"
       inkscape:connector-curvature="0"
       style="fill:#ffce00" />
    <path
       d="m 1196,739.328 a 7.667,7.667 0 0 1 -7.667,7.667 7.667,7.667 0 0 1 -7.667,-7.667 7.667,7.667 0 0 1 7.667,-7.667 7.667,7.667 0 0 1 7.667,7.667 z"
       stroke-miterlimit="10"
       id="path134"
       inkscape:connector-curvature="0"
       style="fill:none;stroke:#e25f05;stroke-width:2;stroke-miterlimit:10" />
  </g>
  <g
     id="g146"
     transform="translate(0,-9.705)">
    <path
       d="m 1306,745 h 6 v 51 h -6 z"
       id="path138"
       inkscape:connector-curvature="0"
       style="fill:#75b22d" />
    <path
       d="m 1341.45,736.671 c -0.53,-3.487 -5.107,-5.996 -11.946,-7.161 2.151,-6.596 2.063,-11.815 -0.778,-13.906 -2.84,-2.091 -7.85,-0.628 -13.509,3.383 -3.144,-6.185 -6.896,-9.811 -10.384,-9.282 -3.487,0.53 -5.995,5.107 -7.161,11.945 -6.596,-2.15 -11.815,-2.061 -13.906,0.778 -2.092,2.841 -0.627,7.85 3.384,13.511 -6.185,3.143 -9.812,6.897 -9.282,10.384 0.529,3.488 5.105,5.994 11.944,7.162 -2.15,6.594 -2.062,11.813 0.778,13.903 2.84,2.092 7.852,0.629 13.51,-3.383 3.143,6.186 6.897,9.813 10.385,9.283 3.488,-0.53 5.995,-5.106 7.162,-11.946 6.595,2.151 11.813,2.062 13.904,-0.778 2.092,-2.84 0.628,-7.85 -3.382,-13.509 6.185,-3.144 9.81,-6.897 9.281,-10.384 z"
       id="path140"
       inkscape:connector-curvature="0"
       style="fill:#ff99c3" />
    <path
       d="m 1331.602,738.166 c -0.366,-2.407 -3.525,-4.139 -8.246,-4.942 1.485,-4.553 1.424,-8.155 -0.537,-9.599 -1.96,-1.443 -5.418,-0.434 -9.323,2.335 -2.17,-4.269 -4.761,-6.771 -7.167,-6.406 -2.407,0.365 -4.138,3.524 -4.942,8.244 -4.553,-1.484 -8.155,-1.422 -9.599,0.537 -1.443,1.961 -0.433,5.418 2.336,9.325 -4.269,2.169 -6.772,4.761 -6.407,7.167 0.365,2.407 3.524,4.138 8.244,4.943 -1.484,4.551 -1.423,8.153 0.537,9.596 1.96,1.444 5.419,0.435 9.325,-2.334 2.169,4.269 4.76,6.772 7.167,6.407 2.407,-0.365 4.138,-3.524 4.943,-8.246 4.552,1.485 8.153,1.423 9.597,-0.537 1.444,-1.96 0.434,-5.418 -2.334,-9.323 4.268,-2.17 6.77,-4.76 6.406,-7.167 z"
       id="path142"
       inkscape:connector-curvature="0"
       style="fill:#fcb4cb" />
    <path
       d="m 1321.333,742.328 a 12,12 0 0 1 -12,12 12,12 0 0 1 -12,-12 12,12 0 0 1 12,-12 12,12 0 0 1 12,12 z"
       id="path144"
       inkscape:connector-curvature="0"
       style="fill:#ffce00" />
  </g>
  <g
     id="g154"
     transform="translate(0,-9.705)">
    <path
       d="m 194,748 h 6 v 51 h -6 z"
       id="path148"
       inkscape:connector-curvature="0"
       style="fill:#6c992b" />
    <path
       d="m 229.45,739.671 c -0.53,-3.487 -5.107,-5.996 -11.946,-7.161 2.151,-6.596 2.063,-11.815 -0.778,-13.906 -2.84,-2.091 -7.85,-0.628 -13.509,3.383 -3.144,-6.185 -6.896,-9.811 -10.384,-9.282 -3.487,0.53 -5.995,5.107 -7.161,11.945 -6.596,-2.15 -11.815,-2.061 -13.906,0.778 -2.092,2.841 -0.627,7.85 3.384,13.511 -6.185,3.143 -9.812,6.897 -9.282,10.384 0.529,3.488 5.105,5.994 11.944,7.162 -2.15,6.594 -2.062,11.813 0.778,13.903 2.84,2.092 7.852,0.629 13.51,-3.383 3.143,6.186 6.897,9.813 10.385,9.283 3.488,-0.53 5.995,-5.106 7.162,-11.946 6.595,2.151 11.813,2.062 13.904,-0.778 2.092,-2.84 0.628,-7.85 -3.382,-13.509 6.185,-3.144 9.81,-6.897 9.281,-10.384 z"
       id="path150"
       inkscape:connector-curvature="0"
       style="fill:#ffd9ea" />
    <path
       d="m 209.33299,745.328 a 12,12 0 0 1 -12,12 12,12 0 0 1 -12,-12 12,12 0 0 1 12,-12 12,12 0 0 1 12,12 z"
       id="path152"
       inkscape:connector-curvature="0"
       style="fill:#ffce00" />
  </g>
  <g
     id="g162"
     transform="translate(0,-9.705)">
    <path
       d="m 277,750 h 6 v 51 h -6 z"
       id="path156"
       inkscape:connector-curvature="0"
       style="fill:#6c992b" />
    <path
       d="m 310.91,738.284 c -1.224,-4.532 -5.235,-7.563 -9.688,-7.753 0.952,-4.354 -0.957,-9.006 -5.027,-11.344 -4.07,-2.34 -9.051,-1.646 -12.334,1.369 -2.406,-3.753 -7.045,-5.69 -11.575,-4.467 -4.532,1.225 -7.563,5.236 -7.753,9.688 -4.355,-0.952 -9.006,0.957 -11.345,5.027 -2.338,4.069 -1.646,9.05 1.371,12.333 -3.753,2.406 -5.692,7.045 -4.468,11.576 1.224,4.531 5.234,7.563 9.689,7.752 -0.953,4.354 0.957,9.006 5.026,11.344 4.071,2.34 9.05,1.646 12.333,-1.367 2.405,3.752 7.045,5.689 11.576,4.466 4.533,-1.223 7.565,-5.233 7.753,-9.689 4.354,0.952 9.006,-0.957 11.345,-5.027 2.339,-4.069 1.646,-9.049 -1.37,-12.331 3.755,-2.406 5.693,-7.045 4.467,-11.577 z"
       id="path158"
       inkscape:connector-curvature="0"
       style="fill:#d797f2" />
    <path
       d="m 292.33301,747.328 a 12,12 0 0 1 -12,12 12,12 0 0 1 -12,-12 12,12 0 0 1 12,-12 12,12 0 0 1 12,12 z"
       id="path160"
       inkscape:connector-curvature="0"
       style="fill:#ffce00" />
  </g>
  <g
     id="g190"
     transform="translate(0,-9.705)">
    <g
       id="g166">
      <path
         d="m 881,653 c 0,0 0,-18.53 0,-27.939 0,-11.684 17,-13.229 17,-0.827 0,4.67 0,8.767 0,13.767 0,3 3.951,3 3.951,0 0,-7 0.899,-12.922 -0.746,-18.93 -2.284,-8.34 -14.621,-11.486 -20.713,-5.383 -5.155,5.162 -4.492,11.304 -4.492,18.008 0,7.198 0,13.305 0,21.305 0,2.999 5,2.999 5,-10e-4 0,0 0,3 0,0 z"
         id="path164"
         inkscape:connector-curvature="0"
         style="fill:#38c7fb" />
    </g>
    <path
       d="m 886.34602,656.914 a 7.209,17.766001 0 0 1 -7.209,17.766 7.209,17.766001 0 0 1 -7.209,-17.766 7.209,17.766001 0 0 1 7.209,-17.766 7.209,17.766001 0 0 1 7.209,17.766 z"
       id="path168"
       inkscape:connector-curvature="0"
       style="fill:#505e66" />
    <g
       id="g172">
      <path
         d="m 893.233,681 h -28.012 c 1.4,9 2.206,19.677 2.206,30.913 0,23.053 -3.428,43.152 -8.428,55.839 V 781 h 39 v -15.45 c -5,-12.778 -7.277,-31.877 -7.277,-53.637 10e-4,-11.236 1.111,-21.913 2.511,-30.913 z"
         id="path170"
         inkscape:connector-curvature="0"
         style="fill:#73909d" />
    </g>
    <path
       d="m 915.50201,789 h -75.69799 l 6.17895,-15 H 909.323 Z"
       id="path174"
       inkscape:connector-curvature="0"
       style="fill:#505e66" />
    <path
       d="m 913.641,674.166 c 0,9.102 -15.447,19.568 -34.503,19.568 -19.056,0 -34.503,-10.467 -34.503,-19.568"
       id="path176"
       inkscape:connector-curvature="0"
       style="fill:#505e66" />
    <path
       d="m 844,665 h 69 v 10 h -69 z"
       id="path178"
       inkscape:connector-curvature="0"
       style="fill:#505e66" />
    <path
       d="m 919,670.202 c 0,1.545 -1.253,2.798 -2.799,2.798 H 842.799 C 841.253,673 840,671.747 840,670.202 v -6.404 c 0,-1.545 1.253,-2.798 2.799,-2.798 h 73.402 c 1.546,0 2.799,1.253 2.799,2.798 z"
       id="path180"
       inkscape:connector-curvature="0"
       style="fill:#73909d" />
    <g
       id="g184">
      <path
         d="m 899,649.706 c 0,0 3,-4.635 0,-4.635 -3,0 -3,4.635 0,4.635 0,0 -3,0 0,0 z"
         id="path182"
         inkscape:connector-curvature="0"
         style="fill:#38c7fb" />
    </g>
    <g
       id="g188">
      <path
         d="m 899,658.073 c 0,0 3,-4.635 0,-4.635 -3,0 -3,4.635 0,4.635 0,0 -3,0 0,0 z"
         id="path186"
         inkscape:connector-curvature="0"
         style="fill:#38c7fb" />
    </g>
  </g>
</svg>
