<svg id="svg" version="1.1" width="400" height="300" xmlns="http://www.w3.org/2000/svg" xmlns:xlink="http://www.w3.org/1999/xlink" ><g id="svgg"><path id="path0" d="M172.472 36.856 C 172.675 37.907,173.714 40.506,174.783 42.633 C 178.976 50.981,183.721 67.457,184.968 78.000 L 185.737 84.500 185.869 78.819 C 186.029 71.886,181.014 51.193,177.061 42.474 C 174.228 36.227,171.772 33.220,172.472 36.856 M166.755 38.744 C 164.583 41.180,159.851 53.169,160.448 54.724 C 160.717 55.426,160.513 56.000,159.994 56.000 C 159.475 56.000,159.272 57.462,159.544 59.250 C 159.841 61.200,159.731 61.821,159.269 60.801 C 158.846 59.867,158.438 65.267,158.361 72.801 L 158.223 86.500 159.051 76.000 C 160.431 58.517,163.891 43.988,167.669 39.814 C 168.578 38.809,169.096 37.763,168.821 37.488 C 168.546 37.213,167.616 37.778,166.755 38.744 M241.144 39.750 C 237.176 47.246,233.351 69.474,234.402 78.932 C 235.165 85.800,233.036 87.494,225.768 85.802 C 223.420 85.256,216.550 85.026,210.500 85.291 C 200.766 85.717,196.711 86.540,189.586 89.535 C 188.147 90.140,187.871 90.017,188.475 89.040 C 189.015 88.167,188.822 87.893,187.889 88.204 C 186.005 88.832,186.111 91.604,188.000 91.098 C 188.825 90.877,190.254 90.668,191.177 90.633 C 192.099 90.599,192.623 90.200,192.343 89.746 C 192.062 89.291,193.062 89.229,194.565 89.606 C 196.666 90.133,197.112 89.991,196.495 88.991 C 195.954 88.117,196.083 87.933,196.889 88.432 C 197.548 88.839,198.718 88.649,199.489 88.010 C 202.330 85.651,228.815 87.101,230.809 89.724 C 231.944 91.216,232.946 91.668,233.857 91.099 C 234.802 90.507,234.878 90.043,234.107 89.566 C 232.246 88.416,232.873 87.001,235.250 86.985 C 236.488 86.976,237.050 86.639,236.500 86.235 C 234.221 84.560,235.961 61.574,239.149 51.252 C 240.293 47.549,241.333 43.572,241.460 42.414 C 241.587 41.256,242.012 39.789,242.405 39.154 C 242.797 38.519,242.882 38.000,242.594 38.000 C 242.306 38.000,241.653 38.788,241.144 39.750 M246.488 40.987 C 253.423 48.650,259.582 78.887,256.523 90.250 C 256.099 91.827,256.185 93.000,256.725 93.000 C 257.929 93.000,258.000 92.526,258.649 80.197 C 259.426 65.416,251.835 38.911,246.930 39.280 C 245.306 39.403,245.250 39.619,246.488 40.987 M159.441 90.500 C 157.414 92.066,159.423 95.059,162.441 94.968 C 163.024 94.951,162.646 94.290,161.602 93.499 C 160.032 92.311,159.923 91.797,160.974 90.531 C 162.589 88.585,161.936 88.572,159.441 90.500 M367.322 92.527 C 356.683 95.394,347.689 101.205,342.909 108.300 C 341.593 110.253,342.358 109.687,344.870 106.849 C 350.374 100.630,356.583 97.143,368.000 93.856 C 373.225 92.352,376.375 91.124,375.000 91.127 C 373.625 91.129,370.170 91.760,367.322 92.527 M256.326 94.191 C 254.442 95.098,254.301 95.566,255.269 97.691 C 256.156 99.637,256.088 100.332,254.943 101.056 C 253.742 101.817,253.783 101.972,255.191 101.985 C 257.529 102.006,258.290 100.410,257.048 98.090 C 256.183 96.473,256.353 96.084,258.042 95.819 C 259.162 95.644,260.095 95.061,260.115 94.525 C 260.166 93.113,258.811 92.993,256.326 94.191 M379.685 98.500 C 378.682 105.535,373.710 119.339,370.071 125.192 C 368.382 127.909,367.000 130.774,367.000 131.558 C 367.000 135.199,354.505 145.851,348.166 147.614 C 340.825 149.655,340.597 150.494,347.803 148.949 C 357.221 146.929,366.358 137.598,373.594 122.612 C 377.041 115.473,381.490 98.638,380.795 95.368 C 380.576 94.341,380.077 95.750,379.685 98.500 M160.980 98.524 C 159.437 100.383,159.689 100.674,163.502 101.440 C 166.318 102.005,166.361 101.969,164.209 100.850 C 162.949 100.194,162.147 99.060,162.427 98.329 C 163.102 96.571,162.538 96.647,160.980 98.524 M342.899 102.750 C 339.548 106.334,335.457 111.588,337.644 109.500 C 340.027 107.225,347.223 99.000,346.830 99.000 C 346.597 99.000,344.828 100.688,342.899 102.750 M255.519 106.729 C 262.833 116.308,267.513 128.016,267.943 137.809 C 267.974 138.529,268.401 138.870,268.890 138.568 C 269.380 138.265,270.079 139.701,270.444 141.759 C 270.808 143.816,271.328 146.257,271.600 147.183 C 271.977 148.472,271.321 148.962,268.796 149.273 L 265.500 149.680 268.901 149.840 L 272.302 150.000 271.707 159.772 C 271.233 167.555,271.591 172.287,273.469 183.022 C 274.766 190.435,275.640 196.688,275.413 196.917 C 275.186 197.146,275.000 196.782,275.000 196.108 C 275.000 195.434,274.555 195.157,274.011 195.493 C 273.424 195.856,273.290 195.407,273.681 194.388 C 274.164 193.132,273.985 192.891,273.015 193.490 C 272.116 194.046,271.929 193.924,272.433 193.108 C 275.267 188.524,249.164 160.787,239.708 158.334 C 234.378 156.952,210.118 157.690,215.000 159.086 C 217.040 159.669,217.132 159.821,215.500 159.913 C 214.400 159.975,211.250 161.154,208.500 162.532 C 203.413 165.082,203.683 165.042,212.500 161.927 C 224.293 157.762,238.607 157.547,244.557 161.445 C 248.119 163.779,247.103 164.359,242.686 162.513 C 240.694 161.681,238.487 161.011,237.782 161.024 C 237.077 161.037,238.986 162.070,242.024 163.320 C 267.775 173.915,284.241 209.454,272.918 230.000 C 266.308 241.994,261.999 243.837,235.500 246.004 C 213.589 247.797,211.216 248.781,229.000 248.699 C 241.966 248.639,243.110 248.525,236.000 248.000 L 227.500 247.373 233.500 246.959 C 236.800 246.732,241.750 246.510,244.500 246.465 C 258.539 246.238,273.199 240.754,277.822 234.000 C 280.610 229.927,280.385 210.930,277.349 194.081 C 276.499 189.361,275.674 183.925,275.517 182.000 C 275.359 180.075,274.672 175.406,273.990 171.625 C 273.309 167.843,273.030 162.668,273.371 160.125 C 273.713 157.581,274.106 154.600,274.246 153.500 C 274.386 152.400,275.400 151.207,276.500 150.850 L 278.500 150.199 276.500 150.098 C 274.741 150.010,270.271 134.733,271.549 133.176 C 271.695 132.998,274.444 131.771,277.657 130.450 C 284.682 127.561,283.189 127.176,275.820 129.976 C 272.960 131.063,270.497 131.830,270.347 131.680 C 270.197 131.530,268.741 127.326,267.110 122.338 C 264.214 113.475,258.707 103.000,256.944 103.000 C 256.458 103.000,257.172 104.638,258.530 106.640 C 262.435 112.394,261.405 112.692,256.977 107.090 C 254.764 104.290,252.718 102.000,252.431 102.000 C 252.144 102.000,253.533 104.128,255.519 106.729 M160.201 104.049 C 157.235 105.240,153.514 113.362,150.687 124.819 L 148.500 133.685 145.000 132.419 C 143.075 131.722,140.825 131.153,140.000 131.154 C 139.175 131.154,140.750 131.945,143.500 132.911 L 148.500 134.666 148.616 142.583 C 148.717 149.458,148.639 149.842,148.023 145.500 L 147.314 140.500 147.179 146.500 C 147.078 151.016,147.516 153.113,148.951 154.981 C 150.856 157.460,150.856 157.457,150.566 146.481 C 150.391 139.877,150.562 137.095,150.996 139.500 C 151.690 143.355,151.721 143.383,151.858 140.250 C 152.015 136.650,152.184 136.542,155.316 138.055 C 157.395 139.060,157.409 139.037,155.608 137.591 C 154.568 136.756,153.237 135.912,152.652 135.717 C 150.105 134.868,155.950 113.876,160.259 108.397 C 161.969 106.224,163.549 102.715,162.662 103.063 C 162.573 103.098,161.466 103.542,160.201 104.049 M159.417 107.486 C 158.521 108.854,156.681 112.566,155.329 115.736 C 153.977 118.906,153.157 120.165,153.509 118.532 C 154.410 114.343,158.958 105.000,160.096 105.000 C 160.618 105.000,160.313 106.119,159.417 107.486 M296.335 108.447 C 310.899 114.435,327.000 130.823,327.000 139.659 L 327.000 142.416 322.750 138.364 C 320.413 136.135,316.925 133.311,315.000 132.088 L 311.500 129.865 315.000 132.659 C 316.925 134.195,320.637 137.536,323.250 140.083 L 328.000 144.714 328.000 140.824 C 328.000 128.967,304.110 105.839,292.053 106.024 C 291.199 106.037,293.126 107.127,296.335 108.447 M332.679 117.546 C 330.330 122.473,330.661 123.311,333.116 118.656 C 334.232 116.541,334.968 114.634,334.752 114.418 C 334.535 114.202,333.603 115.610,332.679 117.546 M283.461 120.447 C 284.087 124.308,289.742 132.427,297.240 140.234 C 300.550 143.680,302.413 145.422,301.379 144.104 C 300.346 142.786,299.950 141.908,300.500 142.152 C 301.050 142.396,304.114 143.857,307.309 145.398 C 311.217 147.283,315.143 148.316,319.309 148.554 L 325.500 148.907 319.328 148.023 C 306.551 146.192,293.057 136.198,286.215 123.500 C 283.785 118.989,283.101 118.232,283.461 120.447 M251.000 123.778 C 247.144 124.941,245.724 130.581,248.571 133.429 C 250.884 135.741,257.659 135.505,258.965 133.066 C 261.766 127.832,256.791 122.032,251.000 123.778 M339.737 131.528 C 335.625 135.582,330.942 144.275,332.195 145.529 C 332.462 145.795,333.212 144.235,333.864 142.061 C 334.519 139.872,337.312 135.631,340.124 132.555 C 346.257 125.845,346.052 125.302,339.737 131.528 M173.540 130.740 C 168.739 135.918,170.630 140.549,177.486 140.404 C 182.345 140.301,187.000 137.191,187.000 134.048 C 187.000 127.862,178.212 125.702,173.540 130.740 M219.694 132.639 C 218.418 133.915,220.194 135.000,223.559 135.000 C 225.951 135.000,227.000 134.543,227.000 133.500 C 227.000 131.978,221.056 131.277,219.694 132.639 M334.546 150.500 C 334.908 151.600,336.298 155.362,337.634 158.860 C 339.039 162.533,339.795 166.070,339.425 167.235 C 338.971 168.666,339.138 169.033,340.000 168.500 C 340.872 167.961,341.024 168.349,340.540 169.875 C 340.124 171.183,340.298 172.000,340.992 172.000 C 341.611 172.000,341.900 172.353,341.633 172.784 C 341.367 173.215,342.012 176.682,343.067 180.487 C 344.123 184.292,345.297 190.352,345.677 193.953 C 346.204 198.953,346.536 199.909,347.078 198.000 C 347.468 196.625,347.664 199.100,347.512 203.500 C 347.279 210.253,347.355 210.721,348.003 206.500 C 348.577 202.756,348.675 203.761,348.390 210.500 C 348.180 215.450,347.374 222.425,346.598 226.000 C 344.181 237.130,343.981 238.649,345.544 234.000 C 346.375 231.525,347.544 226.350,348.141 222.500 C 349.910 211.098,350.868 210.564,350.833 221.000 C 350.814 226.655,350.505 229.488,350.071 228.000 C 349.520 226.111,349.221 227.060,348.847 231.882 C 348.296 239.008,344.265 243.917,338.920 243.973 L 336.341 244.000 339.168 238.250 C 342.851 230.759,344.000 224.200,344.000 210.664 C 344.000 195.826,342.144 197.699,341.023 213.667 C 339.148 240.398,333.766 248.782,319.978 246.454 C 317.475 246.032,316.929 246.145,318.031 246.860 C 318.872 247.407,325.172 248.075,332.031 248.345 C 338.889 248.615,342.925 248.584,341.000 248.276 C 337.625 247.736,337.590 247.686,340.000 246.880 C 341.908 246.241,341.612 246.167,338.750 246.567 C 336.474 246.885,335.000 246.680,335.000 246.045 C 335.000 245.422,337.525 245.028,341.250 245.070 C 345.668 245.120,346.914 245.393,345.500 246.000 C 343.555 246.836,343.559 246.861,345.643 246.930 C 347.909 247.004,349.000 245.277,349.000 241.618 C 349.000 240.398,349.533 238.867,350.185 238.215 C 356.419 231.981,346.696 172.242,336.316 153.000 C 334.980 150.525,334.184 149.400,334.546 150.500 M327.313 150.641 C 326.500 150.972,326.723 151.723,328.016 153.016 C 330.239 155.239,334.807 169.574,335.703 177.136 C 336.165 181.040,336.529 181.906,337.099 180.458 C 337.531 179.362,337.697 181.360,337.476 185.000 L 337.082 191.500 337.987 186.000 C 338.922 180.316,334.112 156.438,331.714 154.862 C 331.181 154.511,331.060 153.712,331.446 153.087 C 331.853 152.428,331.592 152.066,330.824 152.225 C 330.096 152.376,329.613 151.938,329.750 151.250 C 330.008 149.962,329.372 149.803,327.313 150.641 M319.762 152.707 C 321.006 152.946,322.806 152.937,323.762 152.687 C 324.718 152.437,323.700 152.241,321.500 152.252 C 319.300 152.263,318.518 152.468,319.762 152.707 M147.396 160.000 C 148.008 167.030,146.710 178.690,145.140 180.260 C 144.512 180.888,142.936 180.290,140.678 178.568 C 122.268 164.526,108.145 201.913,122.564 226.519 C 127.281 234.569,134.008 239.860,139.173 239.584 C 140.643 239.505,141.642 239.770,141.394 240.172 C 141.146 240.574,142.868 241.424,145.221 242.061 C 147.575 242.699,150.470 243.674,151.655 244.228 C 152.840 244.782,154.254 244.961,154.798 244.625 C 155.342 244.288,157.332 244.658,159.219 245.447 C 165.602 248.114,214.074 251.741,211.707 249.374 C 211.394 249.061,202.219 248.421,191.319 247.952 C 164.891 246.815,155.186 244.127,151.454 236.911 C 150.630 235.318,149.442 234.124,148.814 234.257 C 147.361 234.566,143.013 227.148,143.095 224.500 C 143.140 223.088,143.316 222.941,143.696 224.000 C 145.499 229.025,148.106 234.228,148.582 233.751 C 148.889 233.445,148.170 231.293,146.984 228.969 C 142.832 220.830,143.174 212.353,149.079 177.019 C 152.097 158.956,152.362 156.746,151.000 161.000 C 150.277 163.257,150.190 163.293,150.100 161.364 C 150.045 160.190,149.287 157.940,148.415 156.364 C 146.868 153.569,146.844 153.657,147.396 160.000 M51.495 161.015 C 51.144 162.123,50.445 162.775,49.943 162.465 C 49.422 162.143,49.275 163.318,49.599 165.200 C 49.978 167.397,49.855 168.058,49.230 167.177 C 47.887 165.283,47.001 172.899,46.996 186.390 C 46.994 192.500,46.361 201.550,45.590 206.500 C 39.639 244.709,46.904 250.981,93.500 247.858 C 101.055 247.352,114.086 243.195,111.167 242.222 C 110.337 241.946,110.433 241.220,111.501 239.695 C 113.233 237.223,113.545 225.167,112.079 217.386 C 111.573 214.699,110.863 210.475,110.502 208.000 C 110.140 205.525,109.211 200.800,108.437 197.500 C 107.663 194.200,107.023 187.869,107.015 183.432 C 106.997 173.820,102.419 157.248,100.353 159.314 C 100.078 159.589,100.507 161.093,101.307 162.657 C 102.956 165.878,105.588 181.555,106.487 193.500 C 106.818 197.900,107.915 205.775,108.924 211.000 C 109.934 216.225,110.790 221.175,110.826 222.000 C 110.863 222.825,111.192 225.342,111.557 227.594 C 113.742 241.061,88.229 250.150,64.167 244.477 C 60.684 243.656,57.352 243.283,56.763 243.647 C 56.090 244.063,55.986 243.831,56.485 243.025 C 57.016 242.164,56.820 241.905,55.889 242.238 C 53.227 243.190,49.107 239.677,46.917 234.585 C 44.542 229.065,44.561 228.004,47.443 204.557 C 48.258 197.926,49.352 186.875,49.874 180.000 C 50.396 173.125,51.485 165.588,52.295 163.250 C 53.104 160.912,53.399 159.000,52.950 159.000 C 52.502 159.000,51.847 159.907,51.495 161.015 M55.032 159.628 C 55.014 160.248,55.715 161.348,56.589 162.074 C 57.462 162.799,60.364 167.691,63.038 172.946 C 65.711 178.201,67.921 181.898,67.949 181.161 C 68.023 179.207,58.975 160.692,58.283 161.383 C 57.961 161.705,57.105 161.188,56.381 160.234 C 55.656 159.281,55.049 159.007,55.032 159.628 M96.911 160.282 C 94.701 161.977,91.344 171.399,90.476 178.343 C 89.959 182.486,89.443 183.843,88.675 183.075 C 86.594 180.994,70.000 181.979,70.000 184.184 C 70.000 184.727,70.966 184.811,72.250 184.381 C 74.705 183.558,84.790 183.706,89.375 184.633 C 91.415 185.045,92.041 184.876,91.531 184.051 C 90.565 182.487,93.741 169.655,96.555 163.750 C 97.801 161.137,98.748 159.014,98.660 159.032 C 98.572 159.049,97.785 159.612,96.911 160.282 M202.161 162.505 C 199.225 163.872,195.574 165.879,194.048 166.966 C 192.523 168.052,191.066 168.732,190.811 168.477 C 190.556 168.222,187.200 171.048,183.353 174.757 C 179.507 178.466,178.304 179.719,180.680 177.542 C 183.056 175.365,185.000 173.969,185.000 174.440 C 185.000 174.911,186.350 173.884,188.000 172.157 C 189.650 170.431,191.000 169.270,191.000 169.577 C 191.000 169.885,192.339 169.183,193.975 168.018 C 195.611 166.853,199.774 164.593,203.225 162.996 C 206.676 161.398,209.050 160.076,208.500 160.056 C 207.950 160.036,205.098 161.138,202.161 162.505 M217.250 169.491 C 211.278 172.086,213.858 177.007,221.184 176.994 C 227.459 176.984,232.000 175.145,232.000 172.614 C 232.000 168.349,223.848 166.623,217.250 169.491 M228.435 169.975 C 230.864 170.899,231.880 173.343,230.250 174.341 C 227.865 175.801,218.362 176.033,216.538 174.676 C 211.932 171.250,221.669 167.403,228.435 169.975 M249.791 172.984 C 253.454 173.852,257.243 176.797,256.417 178.134 C 254.930 180.540,245.465 178.256,244.700 175.307 C 244.334 173.892,244.207 173.994,244.116 175.775 C 243.913 179.755,256.261 182.090,257.699 178.342 C 258.646 175.874,253.645 171.976,249.694 172.102 L 246.500 172.205 249.791 172.984 M188.277 177.219 C 184.132 180.153,183.697 181.404,185.882 184.103 L 187.664 186.303 194.398 183.122 C 200.050 180.451,201.081 179.584,200.816 177.720 C 200.341 174.384,192.715 174.079,188.277 177.219 M131.000 176.312 C 131.000 176.484,129.537 177.680,127.750 178.970 L 124.500 181.317 126.924 178.658 C 128.995 176.388,131.000 175.233,131.000 176.312 M199.736 177.691 C 200.215 179.149,195.773 181.503,190.866 182.390 C 185.765 183.312,184.825 180.697,189.271 177.950 C 192.750 175.801,199.065 175.645,199.736 177.691 M136.319 177.782 C 135.582 178.250,136.845 179.239,139.677 180.410 C 143.944 182.175,144.181 182.473,143.641 185.394 C 143.325 187.102,142.328 192.325,141.426 197.000 C 139.186 208.609,139.103 227.111,141.264 232.961 C 142.170 235.414,142.819 237.512,142.706 237.621 C 142.104 238.205,134.475 234.892,133.103 233.450 C 131.613 231.885,131.664 231.851,133.836 232.964 C 135.120 233.623,136.372 233.961,136.618 233.716 C 136.863 233.470,135.778 232.736,134.205 232.085 C 123.853 227.797,114.505 201.495,120.635 193.905 C 121.259 193.132,122.064 191.118,122.425 189.429 C 123.342 185.131,128.520 179.200,132.313 178.103 C 136.341 176.937,137.835 176.817,136.319 177.782 M340.624 187.539 C 340.281 188.432,340.039 189.914,340.086 190.832 C 340.133 191.749,340.568 191.173,341.053 189.550 C 341.996 186.394,341.662 184.832,340.624 187.539 M143.691 199.250 C 143.679 204.897,143.490 205.837,142.835 203.500 C 142.142 201.027,142.638 192.000,143.466 192.000 C 143.598 192.000,143.699 195.262,143.691 199.250 M338.382 204.500 C 338.384 211.100,338.546 213.670,338.741 210.211 C 338.937 206.752,338.936 201.352,338.738 198.211 C 338.540 195.070,338.380 197.900,338.382 204.500 M340.067 198.750 L 340.134 203.500 341.552 199.000 C 342.332 196.525,342.976 194.387,342.985 194.250 C 342.993 194.113,342.325 194.000,341.500 194.000 C 340.368 194.000,340.016 195.165,340.067 198.750 M96.309 197.636 C 95.468 199.829,97.272 202.500,99.595 202.500 C 102.119 202.500,102.679 198.970,100.418 197.316 C 98.044 195.580,97.069 195.656,96.309 197.636 M164.452 199.093 C 163.572 200.794,163.030 202.363,163.247 202.580 C 163.464 202.797,164.390 201.406,165.305 199.487 C 167.361 195.175,166.649 194.845,164.452 199.093 M65.200 198.200 C 63.536 199.864,63.699 202.670,65.500 203.362 C 68.669 204.578,71.578 201.669,70.362 198.500 C 69.670 196.699,66.864 196.536,65.200 198.200 M141.732 216.250 C 141.522 218.588,141.349 216.675,141.349 212.000 C 141.349 207.325,141.522 205.412,141.732 207.750 C 141.943 210.088,141.943 213.912,141.732 216.250 M158.678 213.443 C 157.281 217.599,156.444 220.996,156.819 220.990 C 157.598 220.979,162.190 206.856,161.604 206.271 C 161.392 206.059,160.076 209.286,158.678 213.443 M127.094 229.176 C 127.886 230.656,127.889 231.050,127.105 230.565 C 126.503 230.193,125.513 228.959,124.906 227.824 C 124.114 226.344,124.111 225.950,124.895 226.435 C 125.497 226.807,126.487 228.041,127.094 229.176 M143.786 231.186 C 145.311 234.681,145.476 235.736,144.435 235.337 C 143.223 234.872,141.022 229.253,141.006 226.583 C 140.997 225.162,141.573 226.115,143.786 231.186 M276.053 229.361 C 274.652 233.045,273.867 232.679,275.168 228.949 C 275.753 227.271,276.417 226.083,276.644 226.310 C 276.870 226.537,276.605 227.910,276.053 229.361 M110.519 237.964 C 108.529 241.811,100.738 246.942,97.423 246.589 C 94.349 246.261,93.043 245.042,95.583 244.871 C 96.638 244.800,98.667 244.668,100.093 244.577 C 103.379 244.367,108.488 240.340,110.061 236.718 C 110.725 235.188,111.467 234.133,111.708 234.375 C 111.950 234.617,111.414 236.232,110.519 237.964 M154.632 245.786 C 154.365 246.218,154.901 246.603,155.823 246.641 C 156.746 246.680,158.400 247.032,159.500 247.425 C 160.795 247.887,160.619 247.598,159.000 246.605 C 156.126 244.841,155.311 244.689,154.632 245.786 M349.500 246.000 C 349.160 246.550,349.557 247.000,350.382 247.000 C 351.207 247.000,352.160 246.550,352.500 246.000 C 352.840 245.450,352.443 245.000,351.618 245.000 C 350.793 245.000,349.840 245.450,349.500 246.000 M79.728 247.730 C 77.653 247.946,74.503 247.943,72.728 247.722 C 70.952 247.501,72.650 247.324,76.500 247.328 C 80.350 247.333,81.802 247.513,79.728 247.730 " stroke="none" fill="#000000" fill-rule="evenodd"></path></g></svg>