<?xml version="1.0" encoding="UTF-8" standalone="no"?>
<svg
   xmlns:dc="http://purl.org/dc/elements/1.1/"
   xmlns:cc="http://creativecommons.org/ns#"
   xmlns:rdf="http://www.w3.org/1999/02/22-rdf-syntax-ns#"
   xmlns:svg="http://www.w3.org/2000/svg"
   xmlns="http://www.w3.org/2000/svg"
   xmlns:sodipodi="http://sodipodi.sourceforge.net/DTD/sodipodi-0.dtd"
   xmlns:inkscape="http://www.inkscape.org/namespaces/inkscape"
   viewbox="0 0 2000 1625.36"
   width="2000"
   height="1625.36"
   version="1.1"
   id="svg4"
   sodipodi:docname="twitter-bird.svg"
   inkscape:version="0.92.2 (5c3e80d, 2017-08-06)">
  <metadata
     id="metadata10">
    <rdf:RDF>
      <cc:Work
         rdf:about="">
        <dc:format>image/svg+xml</dc:format>
        <dc:type
           rdf:resource="http://purl.org/dc/dcmitype/StillImage" />
      </cc:Work>
    </rdf:RDF>
  </metadata>
  <defs
     id="defs8" />
  <sodipodi:namedview
     pagecolor="#ffffff"
     bordercolor="#666666"
     borderopacity="1"
     objecttolerance="10"
     gridtolerance="10"
     guidetolerance="10"
     inkscape:pageopacity="0"
     inkscape:pageshadow="2"
     inkscape:window-width="1419"
     inkscape:window-height="854"
     id="namedview6"
     showgrid="false"
     inkscape:zoom="0.1451986"
     inkscape:cx="1089.5325"
     inkscape:cy="-267.104"
     inkscape:window-x="124"
     inkscape:window-y="57"
     inkscape:window-maximized="0"
     inkscape:current-layer="svg4" />
  <path
     d="m 1745.1766,360.6115 c -54.8302,23.78848 -113.7662,39.85882 -175.6084,47.08864 63.1165,-37.00915 111.6051,-95.61305 134.4373,-165.44796 -59.0851,34.2761 -124.519,59.1578 -194.1706,72.56796 -55.7691,-58.12288 -135.2347,-94.43237 -223.1805,-94.43237 -168.857,0 -305.76675,133.89034 -305.76675,299.03949 0,23.43865 2.7035,46.26508 7.9175,68.15136 -254.11716,-12.47 -479.4228,-131.52898 -630.22493,-312.45695 -26.32261,44.1661 -41.40074,95.54017 -41.40074,150.34695 0,103.7539 53.97858,195.28559 136.02699,248.9117 -50.12206,-1.55238 -97.27162,-15.00628 -138.49249,-37.40272 -0.0291,1.24627 -0.0291,2.49254 -0.0291,3.76068 0,144.89028 105.39853,265.75089 245.27116,293.23226 -25.65345,6.83263 -52.6661,10.49127 -80.55211,10.49127 -19.70321,0 -38.85723,-1.87881 -57.52986,-5.36693 38.9094,118.80242 151.82973,205.26972 285.62916,207.67252 -104.64439,80.2147 -236.48253,128.0234 -379.7399,128.0234 -24.68107,0 -49.02151,-1.4204 -72.93997,-4.1819 135.31364,84.8467 296.0363,134.3633 468.70714,134.3633 562.4086,0 869.9654,-455.68194 869.9654,-850.86799 0,-12.96559 -0.3057,-25.8583 -0.8943,-38.68542 59.7481,-42.16915 111.5827,-94.83322 152.5748,-154.80729"
     style="fill:#00aced;stroke-width:0.73694968"
     id="path2"
     inkscape:connector-curvature="0" />
</svg>
