<?xml version="1.0" encoding="UTF-8" standalone="no"?>
<!-- Created with Inkscape (http://www.inkscape.org/) -->

<svg
   xmlns:dc="http://purl.org/dc/elements/1.1/"
   xmlns:cc="http://creativecommons.org/ns#"
   xmlns:rdf="http://www.w3.org/1999/02/22-rdf-syntax-ns#"
   xmlns:svg="http://www.w3.org/2000/svg"
   xmlns="http://www.w3.org/2000/svg"
   xmlns:sodipodi="http://sodipodi.sourceforge.net/DTD/sodipodi-0.dtd"
   xmlns:inkscape="http://www.inkscape.org/namespaces/inkscape"
   width="133.2126mm"
   height="96.436996mm"
   viewBox="0 0 133.2126 96.436996"
   version="1.1"
   id="svg4667"
   inkscape:version="0.92.2 (5c3e80d, 2017-08-06)"
   sodipodi:docname="website.svg">
  <defs
     id="defs4661" />
  <sodipodi:namedview
     id="base"
     pagecolor="#ffffff"
     bordercolor="#666666"
     borderopacity="1.0"
     inkscape:pageopacity="0.0"
     inkscape:pageshadow="2"
     inkscape:zoom="0.98994949"
     inkscape:cx="96.249981"
     inkscape:cy="311.73398"
     inkscape:document-units="mm"
     inkscape:current-layer="layer1"
     showgrid="false"
     fit-margin-top="0"
     fit-margin-left="0"
     fit-margin-right="0"
     fit-margin-bottom="0"
     inkscape:window-width="1920"
     inkscape:window-height="1017"
     inkscape:window-x="-8"
     inkscape:window-y="-8"
     inkscape:window-maximized="1" />
  <metadata
     id="metadata4664">
    <rdf:RDF>
      <cc:Work
         rdf:about="">
        <dc:format>image/svg+xml</dc:format>
        <dc:type
           rdf:resource="http://purl.org/dc/dcmitype/StillImage" />
        <dc:title />
      </cc:Work>
    </rdf:RDF>
  </metadata>
  <g
     inkscape:label="Layer 1"
     inkscape:groupmode="layer"
     id="layer1"
     transform="translate(-13.146675,-103.26067)">
    <path
       inkscape:connector-curvature="0"
       style="fill:#ffffff;stroke:#34525c;stroke-width:2.0065639;stroke-miterlimit:10"
       d="M 14.149957,104.26395 H 145.356 v 94.43043 H 14.149957 Z"
       stroke-miterlimit="10"
       id="path32" />
    <path
       inkscape:connector-curvature="0"
       style="fill:#e6e6e6;stroke-width:1.00328195"
       d="M 15.174266,105.26124 H 144.33064 V 119.0542 H 15.174266 Z"
       id="path34" />
    <path
       inkscape:connector-curvature="0"
       style="fill:#f4927c;stroke:#34535d;stroke-width:2.0065639;stroke-miterlimit:10"
       d="m 26.071403,112.13773 a 2.7696702,2.6200316 0 0 1 -2.769685,2.62001 2.7696702,2.6200316 0 0 1 -2.769646,-2.62001 2.7696702,2.6200316 0 0 1 2.769646,-2.62005 2.7696702,2.6200316 0 0 1 2.769685,2.62005 z"
       stroke-miterlimit="10"
       id="path36" />
    <path
       inkscape:connector-curvature="0"
       style="fill:#ffffff;stroke:#34525c;stroke-width:2.0065639;stroke-miterlimit:10"
       d="m 36.513638,112.13773 a 2.7696702,2.6200316 0 0 1 -2.769685,2.62001 2.7696702,2.6200316 0 0 1 -2.769685,-2.62001 2.7696702,2.6200316 0 0 1 2.769685,-2.62005 2.7696702,2.6200316 0 0 1 2.769685,2.62005 z"
       stroke-miterlimit="10"
       id="path38" />
    <path
       inkscape:connector-curvature="0"
       style="fill:#ffffff;stroke:#34525c;stroke-width:2.0065639;stroke-miterlimit:10"
       d="m 46.954821,112.13773 a 2.7696702,2.6200316 0 0 1 -2.769685,2.62001 2.7696702,2.6200316 0 0 1 -2.769646,-2.62001 2.7696702,2.6200316 0 0 1 2.769646,-2.62005 2.7696702,2.6200316 0 0 1 2.769685,2.62005 z"
       stroke-miterlimit="10"
       id="path40" />
    <path
       inkscape:connector-curvature="0"
       style="fill:#ffffff;stroke:#34525c;stroke-width:2.0065639;stroke-miterlimit:10"
       d="M 21.166432,122.95744 H 139.42984 v 7.38585 H 21.166432 Z"
       stroke-miterlimit="10"
       id="path42" />
    <path
       inkscape:connector-curvature="0"
       style="fill:#34525c;stroke-width:1.00328195"
       d="m 114.41613,125.64479 h 21.35999 v 2.01114 h -21.35999 z"
       id="path44" />
    <path
       inkscape:connector-curvature="0"
       style="fill:#ffffff;stroke:#34525c;stroke-width:2.0065639;stroke-miterlimit:10"
       d="m 22.006137,142.37297 h 8.625669 v 7.38585 h -8.625669 z"
       stroke-miterlimit="10"
       id="path118" />
    <path
       inkscape:connector-curvature="0"
       style="fill:#ffffff;stroke:#34525c;stroke-width:2.0065639;stroke-miterlimit:10"
       d="m 22.006137,154.89255 h 8.625669 v 7.38585 h -8.625669 z"
       stroke-miterlimit="10"
       id="path120" />
    <path
       inkscape:connector-curvature="0"
       style="fill:#ffffff;stroke:#34525c;stroke-width:2.0065639;stroke-miterlimit:10"
       d="m 22.006137,167.41209 h 8.625669 v 7.38585 h -8.625669 z"
       stroke-miterlimit="10"
       id="path122" />
    <path
       inkscape:connector-curvature="0"
       style="fill:#ffffff;stroke:#34525c;stroke-width:2.0065639;stroke-miterlimit:10"
       d="m 22.006137,179.93263 h 8.625669 v 7.38485 h -8.625669 z"
       stroke-miterlimit="10"
       id="path124" />
    <path
       inkscape:connector-curvature="0"
       style="fill:#ffffff;stroke:#34525c;stroke-width:2.0065639;stroke-miterlimit:10"
       d="m 130.80413,142.37297 h 8.62567 v 7.38585 h -8.62567 z"
       stroke-miterlimit="10"
       id="path126" />
    <path
       inkscape:connector-curvature="0"
       style="fill:#ffffff;stroke:#34525c;stroke-width:2.0065639;stroke-miterlimit:10"
       d="m 130.80413,154.89255 h 8.62567 v 7.38585 h -8.62567 z"
       stroke-miterlimit="10"
       id="path128" />
    <path
       inkscape:connector-curvature="0"
       style="fill:#ffffff;stroke:#34525c;stroke-width:2.0065639;stroke-miterlimit:10"
       d="m 130.80413,167.41209 h 8.62567 v 7.38585 h -8.62567 z"
       stroke-miterlimit="10"
       id="path130" />
    <path
       inkscape:connector-curvature="0"
       style="fill:#ffffff;stroke:#34525c;stroke-width:2.0065639;stroke-miterlimit:10"
       d="m 130.80413,179.93263 h 8.62567 v 7.38485 h -8.62567 z"
       stroke-miterlimit="10"
       id="path132" />
    <path
       inkscape:connector-curvature="0"
       style="fill:#ffffff;stroke:#34525c;stroke-width:2.0065639;stroke-miterlimit:10"
       stroke-miterlimit="10"
       d="m 47.374634,187.50292 c -0.895378,0.002 -1.621553,-0.65574 -1.623619,-1.46373 l -0.09903,-41.83169 c -0.0021,-0.8119 0.72516,-1.47055 1.615393,-1.4725 l 68.047242,-0.14236 c 0.89328,-0.002 1.61949,0.65673 1.61949,1.46663 l 0.10098,41.82683 c 0.002,0.81186 -0.72002,1.47151 -1.6154,1.47346 z"
       id="path140" />
    <path
       inkscape:connector-curvature="0"
       style="fill:#f4927c;stroke:#34535d;stroke-width:2.0065639;stroke-miterlimit:10"
       stroke-miterlimit="10"
       d="m 103.15489,146.38254 c 0.66531,0 1.21102,0.54355 1.21102,1.21976 l 0.0827,34.80399 c 0,0.67621 -0.53849,1.22363 -1.20693,1.22559 l -50.712273,0.10621 c -0.669487,0 -1.211019,-0.54742 -1.211019,-1.22167 l -0.08265,-34.80204 c -0.0031,-0.67429 0.536385,-1.22658 1.206885,-1.22658 z"
       id="path142" />
    <path
       inkscape:connector-curvature="0"
       style="fill:#ffffff;stroke:#34525c;stroke-width:2.0065639;stroke-miterlimit:10"
       stroke-miterlimit="10"
       d="m 112.52946,161.80024 c 0.89331,0 1.61953,0.68503 1.61953,1.53203 v 3.4475 c 0,0.84505 -0.72622,1.53007 -1.61953,1.53007 h -3.64339 c -0.89639,0 -1.6226,-0.68502 -1.6226,-1.53007 v -3.4475 c 0,-0.847 0.72621,-1.53203 1.6226,-1.53203 z"
       id="path144" />
  </g>
</svg>
